<svg width="21" height="26" viewBox="0 0 21 26" fill="none" xmlns="http://www.w3.org/2000/svg">
<path d="M16.0621 3.05766C16.0621 4.19405 15.1408 5.1153 14.0044 5.1153C12.868 5.1153 11.9468 4.19405 11.9468 3.05766C11.9468 1.92125 12.868 1 14.0044 1C15.1408 1 16.0621 1.92125 16.0621 3.05766Z" fill="black" stroke="#FACC15" stroke-width="1.7637"/>
<path d="M11.5474 8.9707C11.8203 9.05023 12.129 9.19475 12.4321 9.37305C12.5397 9.43629 12.6408 9.49888 12.731 9.55859C12.493 10.0385 12.2647 10.464 12.0483 10.8564C11.7617 11.3764 11.4836 11.8637 11.2515 12.3271C10.8625 13.1039 10.5818 13.8608 10.4878 14.8027H9.25049C10.0852 13.0111 10.4381 12.0198 10.6958 11.2295C10.9508 10.4474 11.0961 9.91805 11.5474 8.9707Z" fill="black" stroke="#FACC15" stroke-width="1.39342"/>
<path d="M8.14788 15.4992C6.33534 18.7024 2.47461 23.2876 2.47461 23.2876M8.14788 15.4992C9.11454 15.4992 10.1804 15.4992 11.147 15.4992M8.14788 15.4992C10.4967 10.6615 9.82784 10.807 11.147 8.20703C12.23 8.20703 13.6115 9.33802 13.6115 9.33802C12.2645 12.2166 11.147 13.2084 11.147 15.4992M11.147 15.4992C13.0199 18.7024 10.2117 23.9996 10.2117 23.9996" stroke="#FACC15" stroke-width="3.08646" stroke-linecap="round" stroke-linejoin="round"/>
<path d="M13.8574 9.36133L15.1647 14.7994L19.5599 12.0431" stroke="#FACC15" stroke-width="2.67494" stroke-linecap="round" stroke-linejoin="round"/>
<path d="M11.0648 7.95657L7.09133 7.91797L4.80957 12.0776" stroke="#FACC15" stroke-width="2.67494" stroke-linecap="round" stroke-linejoin="round"/>
</svg>
