<svg width="25" height="25" viewBox="0 0 25 25" fill="none" xmlns="http://www.w3.org/2000/svg">
<path d="M17.5 20.3711H22.5V18.3711C22.5 17.7476 22.3057 17.1397 21.9441 16.6317C21.5826 16.1238 21.0718 15.7411 20.4827 15.5368C19.8937 15.3326 19.2556 15.317 18.6573 15.4921C18.0589 15.6673 17.53 16.0245 17.144 16.5141M17.5 20.3711H7.5M17.5 20.3711V18.3711C17.5 17.7151 17.374 17.0881 17.144 16.5141M17.144 16.5141C16.7726 15.5861 16.1318 14.7906 15.304 14.2302C14.4762 13.6699 13.4996 13.3704 12.5 13.3704C11.5004 13.3704 10.5238 13.6699 9.696 14.2302C8.86825 14.7906 8.22736 15.5861 7.856 16.5141M7.5 20.3711H2.5V18.3711C2.50005 17.7476 2.69434 17.1397 3.05586 16.6317C3.41739 16.1238 3.92819 15.7411 4.51725 15.5368C5.10632 15.3326 5.74438 15.317 6.34274 15.4921C6.9411 15.6673 7.47003 16.0245 7.856 16.5141M7.5 20.3711V18.3711C7.5 17.7151 7.626 17.0881 7.856 16.5141M15.5 7.37109C15.5 8.16674 15.1839 8.92981 14.6213 9.49241C14.0587 10.055 13.2956 10.3711 12.5 10.3711C11.7044 10.3711 10.9413 10.055 10.3787 9.49241C9.81607 8.92981 9.5 8.16674 9.5 7.37109C9.5 6.57544 9.81607 5.81238 10.3787 5.24977C10.9413 4.68716 11.7044 4.37109 12.5 4.37109C13.2956 4.37109 14.0587 4.68716 14.6213 5.24977C15.1839 5.81238 15.5 6.57544 15.5 7.37109ZM21.5 10.3711C21.5 10.9015 21.2893 11.4102 20.9142 11.7853C20.5391 12.1604 20.0304 12.3711 19.5 12.3711C18.9696 12.3711 18.4609 12.1604 18.0858 11.7853C17.7107 11.4102 17.5 10.9015 17.5 10.3711C17.5 9.84066 17.7107 9.33195 18.0858 8.95688C18.4609 8.58181 18.9696 8.37109 19.5 8.37109C20.0304 8.37109 20.5391 8.58181 20.9142 8.95688C21.2893 9.33195 21.5 9.84066 21.5 10.3711ZM7.5 10.3711C7.5 10.9015 7.28929 11.4102 6.91421 11.7853C6.53914 12.1604 6.03043 12.3711 5.5 12.3711C4.96957 12.3711 4.46086 12.1604 4.08579 11.7853C3.71071 11.4102 3.5 10.9015 3.5 10.3711C3.5 9.84066 3.71071 9.33195 4.08579 8.95688C4.46086 8.58181 4.96957 8.37109 5.5 8.37109C6.03043 8.37109 6.53914 8.58181 6.91421 8.95688C7.28929 9.33195 7.5 9.84066 7.5 10.3711Z" stroke="#2F7ABE" stroke-width="1.6" stroke-linecap="round" stroke-linejoin="round"/>
</svg>
