<svg width="20" height="20" viewBox="0 0 20 20" fill="none" xmlns="http://www.w3.org/2000/svg">
<path fill-rule="evenodd" clip-rule="evenodd" d="M4.25 1.82617C1.5 1.82617 1.5 2.03417 1.5 4.57617V4.60117C1.5 5.70817 1.5 6.50817 1.771 6.84617C2.036 7.17417 2.823 7.32617 4.25 7.32617C5.677 7.32617 6.464 7.17317 6.729 6.84517C7 6.50817 7 5.70817 7 4.60017C7 2.03417 7 1.82617 4.25 1.82617ZM4.25 8.82617C2.564 8.82617 1.299 8.64917 0.604 7.78617C0 7.03717 0 6.01517 0 4.60117L0.75 4.57617H0C0 1.70617 0.181 0.326172 4.25 0.326172C8.319 0.326172 8.5 1.70617 8.5 4.57617C8.5 6.01417 8.5 7.03717 7.896 7.78617C7.201 8.64917 5.936 8.82617 4.25 8.82617Z" fill="#2F7ABE"/>
<path fill-rule="evenodd" clip-rule="evenodd" d="M15.25 1.82617C12.5 1.82617 12.5 2.03417 12.5 4.57617V4.60117C12.5 5.70817 12.5 6.50817 12.771 6.84617C13.036 7.17417 13.823 7.32617 15.25 7.32617C16.677 7.32617 17.464 7.17317 17.729 6.84517C18 6.50817 18 5.70817 18 4.60017C18 2.03417 18 1.82617 15.25 1.82617ZM15.25 8.82617C13.564 8.82617 12.299 8.64917 11.604 7.78617C11 7.03717 11 6.01517 11 4.60117L11.75 4.57617H11C11 1.70617 11.181 0.326172 15.25 0.326172C19.319 0.326172 19.5 1.70617 19.5 4.57617C19.5 6.01417 19.5 7.03717 18.896 7.78617C18.201 8.64917 16.936 8.82617 15.25 8.82617Z" fill="#2F7ABE"/>
<path fill-rule="evenodd" clip-rule="evenodd" d="M4.25 12.8262C1.5 12.8262 1.5 13.0342 1.5 15.5762V15.6012C1.5 16.7082 1.5 17.5082 1.771 17.8462C2.036 18.1742 2.823 18.3262 4.25 18.3262C5.677 18.3262 6.464 18.1732 6.729 17.8452C7 17.5082 7 16.7082 7 15.6002C7 13.0342 7 12.8262 4.25 12.8262ZM4.25 19.8262C2.564 19.8262 1.299 19.6492 0.604 18.7862C0 18.0372 0 17.0152 0 15.6012L0.75 15.5762H0C0 12.7062 0.181 11.3262 4.25 11.3262C8.319 11.3262 8.5 12.7062 8.5 15.5762C8.5 17.0142 8.5 18.0372 7.896 18.7862C7.201 19.6492 5.936 19.8262 4.25 19.8262Z" fill="#2F7ABE"/>
<path fill-rule="evenodd" clip-rule="evenodd" d="M15.25 12.8262C12.5 12.8262 12.5 13.0342 12.5 15.5762V15.6012C12.5 16.7082 12.5 17.5082 12.771 17.8462C13.036 18.1742 13.823 18.3262 15.25 18.3262C16.677 18.3262 17.464 18.1732 17.729 17.8452C18 17.5082 18 16.7082 18 15.6002C18 13.0342 18 12.8262 15.25 12.8262ZM15.25 19.8262C13.564 19.8262 12.299 19.6492 11.604 18.7862C11 18.0372 11 17.0152 11 15.6012L11.75 15.5762H11C11 12.7062 11.181 11.3262 15.25 11.3262C19.319 11.3262 19.5 12.7062 19.5 15.5762C19.5 17.0142 19.5 18.0372 18.896 18.7862C18.201 19.6492 16.936 19.8262 15.25 19.8262Z" fill="#2F7ABE"/>
</svg>
