<svg width="21" height="21" viewBox="0 0 21 21" fill="none" xmlns="http://www.w3.org/2000/svg">
<path fill-rule="evenodd" clip-rule="evenodd" d="M5.90625 2.625C5.7322 2.625 5.56528 2.69414 5.44221 2.81721C5.31914 2.94028 5.25 3.1072 5.25 3.28125V15.0938C5.25 15.2678 5.31914 15.4347 5.44221 15.5578C5.56528 15.6809 5.7322 15.75 5.90625 15.75H17.7188C17.8928 15.75 18.0597 15.6809 18.1828 15.5578C18.3059 15.4347 18.375 15.2678 18.375 15.0938V3.28125C18.375 3.1072 18.3059 2.94028 18.1828 2.81721C18.0597 2.69414 17.8928 2.625 17.7188 2.625H5.90625ZM2.625 5.25V17.7188C2.625 17.8928 2.69414 18.0597 2.81721 18.1828C2.94028 18.3059 3.1072 18.375 3.28125 18.375H15.75V17.0625H3.9375V5.25H2.625ZM11.1562 5.90625V8.53125H8.53125V9.84375H11.1562V12.4688H12.4688V9.84375H15.0938V8.53125H12.4688V5.90625H11.1562Z" fill="#FACC15"/>
</svg>
