<svg width="21" height="21" viewBox="0 0 21 21" fill="none" xmlns="http://www.w3.org/2000/svg">
<path fill-rule="evenodd" clip-rule="evenodd" d="M10.5835 0.606445C10.9552 0.606445 11.3117 0.754103 11.5745 1.01694C11.8373 1.27977 11.985 1.63625 11.985 2.00795V9.01547H18.9925C19.3642 9.01547 19.7207 9.16313 19.9835 9.42596C20.2464 9.6888 20.394 10.0453 20.394 10.417C20.394 10.7887 20.2464 11.1452 19.9835 11.408C19.7207 11.6708 19.3642 11.8185 18.9925 11.8185H11.985V18.826C11.985 19.1977 11.8373 19.5542 11.5745 19.817C11.3117 20.0799 10.9552 20.2275 10.5835 20.2275C10.2118 20.2275 9.8553 20.0799 9.59247 19.817C9.32964 19.5542 9.18198 19.1977 9.18198 18.826V11.8185H2.17445C1.80275 11.8185 1.44627 11.6708 1.18344 11.408C0.920607 11.1452 0.772949 10.7887 0.772949 10.417C0.772949 10.0453 0.920607 9.6888 1.18344 9.42596C1.44627 9.16313 1.80275 9.01547 2.17445 9.01547H9.18198V2.00795C9.18198 1.63625 9.32964 1.27977 9.59247 1.01694C9.8553 0.754103 10.2118 0.606445 10.5835 0.606445Z" fill="black"/>
</svg>
