<svg width="27" height="27" viewBox="0 0 27 27" fill="none" xmlns="http://www.w3.org/2000/svg">
<path fill-rule="evenodd" clip-rule="evenodd" d="M7.79743 3.86987C7.57834 3.86987 7.36822 3.95691 7.2133 4.11183C7.05837 4.26675 6.97134 4.47687 6.97134 4.69596V19.5655C6.97134 19.7846 7.05837 19.9947 7.2133 20.1497C7.36822 20.3046 7.57834 20.3916 7.79743 20.3916H22.667C22.8861 20.3916 23.0962 20.3046 23.2511 20.1497C23.406 19.9947 23.4931 19.7846 23.4931 19.5655V4.69596C23.4931 4.47687 23.406 4.26675 23.2511 4.11183C23.0962 3.95691 22.8861 3.86987 22.667 3.86987H7.79743ZM3.66699 7.17422V22.8699C3.66699 23.089 3.75403 23.2991 3.90895 23.454C4.06387 23.6089 4.27399 23.696 4.49308 23.696H20.1887V22.0438H5.31917V7.17422H3.66699ZM14.4061 8.00031V11.3047H11.1018V12.9568H14.4061V16.2612H16.0583V12.9568H19.3626V11.3047H16.0583V8.00031H14.4061Z" fill="#2976BA"/>
</svg>
