<svg width="32" height="32" viewBox="0 0 32 32" fill="none" xmlns="http://www.w3.org/2000/svg">
<path fill-rule="evenodd" clip-rule="evenodd" d="M16.0012 28.8002C19.3959 28.8002 22.6517 27.4516 25.0521 25.0512C27.4526 22.6507 28.8012 19.395 28.8012 16.0002C28.8012 12.6054 27.4526 9.34969 25.0521 6.94923C22.6517 4.54876 19.3959 3.2002 16.0012 3.2002C12.6064 3.2002 9.35067 4.54876 6.95021 6.94923C4.54974 9.34969 3.20117 12.6054 3.20117 16.0002C3.20117 19.395 4.54974 22.6507 6.95021 25.0512C9.35067 27.4516 12.6064 28.8002 16.0012 28.8002ZM17.6012 11.2002C17.6012 10.7758 17.4326 10.3689 17.1325 10.0688C16.8325 9.76877 16.4255 9.6002 16.0012 9.6002C15.5768 9.6002 15.1699 9.76877 14.8698 10.0688C14.5697 10.3689 14.4012 10.7758 14.4012 11.2002V14.4002H11.2012C10.7768 14.4002 10.3699 14.5688 10.0698 14.8688C9.76974 15.1689 9.60117 15.5758 9.60117 16.0002C9.60117 16.4245 9.76974 16.8315 10.0698 17.1316C10.3699 17.4316 10.7768 17.6002 11.2012 17.6002H14.4012V20.8002C14.4012 21.2245 14.5697 21.6315 14.8698 21.9316C15.1699 22.2316 15.5768 22.4002 16.0012 22.4002C16.4255 22.4002 16.8325 22.2316 17.1325 21.9316C17.4326 21.6315 17.6012 21.2245 17.6012 20.8002V17.6002H20.8012C21.2255 17.6002 21.6325 17.4316 21.9325 17.1316C22.2326 16.8315 22.4012 16.4245 22.4012 16.0002C22.4012 15.5758 22.2326 15.1689 21.9325 14.8688C21.6325 14.5688 21.2255 14.4002 20.8012 14.4002H17.6012V11.2002Z" fill="white"/>
</svg>
