<svg width="20" height="20" viewBox="0 0 20 20" fill="none" xmlns="http://www.w3.org/2000/svg">
<path fill-rule="evenodd" clip-rule="evenodd" d="M7.91663 10.4613C10.2121 10.4613 12.0522 8.59746 12.0522 6.27229C12.0522 3.94711 10.2121 2.08325 7.91663 2.08325C5.62115 2.08325 3.7811 3.94711 3.7811 6.27229C3.7811 8.59746 5.62115 10.4613 7.91663 10.4613ZM7.91663 12.5126C4.54515 12.5126 1.66663 13.0516 1.66663 15.2053C1.66663 17.3581 4.52763 17.9166 7.91663 17.9166C11.2873 17.9166 14.1666 17.3775 14.1666 15.2239C14.1666 13.0702 11.3056 12.5126 7.91663 12.5126ZM16.5816 7.9898H17.5841C17.9968 7.9898 18.3333 8.33101 18.3333 8.74948C18.3333 9.16796 17.9968 9.50917 17.5841 9.50917H16.5816V10.4902C16.5816 10.9087 16.246 11.2499 15.8324 11.2499C15.4198 11.2499 15.0833 10.9087 15.0833 10.4902V9.50917H14.0824C13.6689 9.50917 13.3333 9.16796 13.3333 8.74948C13.3333 8.33101 13.6689 7.9898 14.0824 7.9898H15.0833V7.0096C15.0833 6.59112 15.4198 6.24992 15.8324 6.24992C16.246 6.24992 16.5816 6.59112 16.5816 7.0096V7.9898Z" fill="#949494"/>
</svg>
