<svg width="25" height="25" viewBox="0 0 25 25" fill="none" xmlns="http://www.w3.org/2000/svg">
<g clip-path="url(#clip0_3450_2758)">
<path d="M17.2729 0.718065C17.2219 0.661065 15.3844 0.740565 13.7854 2.47607C12.1864 4.21007 12.4324 6.19907 12.4684 6.25007C12.5044 6.30107 14.7484 6.38057 16.1809 4.36307C17.6134 2.34556 17.3239 0.776565 17.2729 0.718065ZM22.2439 18.3176C22.1719 18.1736 18.7564 16.4666 19.0744 13.1846C19.3924 9.90106 21.5869 9.00107 21.6214 8.90357C21.6559 8.80607 20.7259 7.71857 19.7404 7.16807C19.0168 6.77994 18.216 6.55758 17.3959 6.51707C17.2339 6.51257 16.6714 6.37457 15.5149 6.69106C14.7529 6.89957 13.0354 7.57457 12.5629 7.60157C12.0889 7.62857 10.6789 6.81856 9.16239 6.60406C8.19189 6.41656 7.16289 6.80057 6.42639 7.09607C5.69139 7.39007 4.29339 8.22707 3.31539 10.4516C2.33739 12.6746 2.84889 16.1966 3.21489 17.2916C3.58089 18.3851 4.15239 20.1776 5.12439 21.4856C5.98839 22.9616 7.13439 23.9861 7.61289 24.3341C8.09139 24.6821 9.44139 24.9131 10.3774 24.4346C11.1304 23.9726 12.4894 23.7071 13.0264 23.7266C13.5619 23.7461 14.6179 23.9576 15.6994 24.5351C16.5559 24.8306 17.3659 24.7076 18.1774 24.3776C18.9889 24.0461 20.1634 22.7891 21.5344 20.2406C22.0549 19.0556 22.2919 18.4151 22.2439 18.3176Z" fill="black"/>
<path d="M17.2729 0.718065C17.2219 0.661065 15.3844 0.740565 13.7854 2.47607C12.1864 4.21007 12.4324 6.19907 12.4684 6.25007C12.5044 6.30107 14.7484 6.38057 16.1809 4.36307C17.6134 2.34556 17.3239 0.776565 17.2729 0.718065ZM22.2439 18.3176C22.1719 18.1736 18.7564 16.4666 19.0744 13.1846C19.3924 9.90106 21.5869 9.00107 21.6214 8.90357C21.6559 8.80607 20.7259 7.71857 19.7404 7.16807C19.0168 6.77994 18.216 6.55758 17.3959 6.51707C17.2339 6.51257 16.6714 6.37457 15.5149 6.69106C14.7529 6.89957 13.0354 7.57457 12.5629 7.60157C12.0889 7.62857 10.6789 6.81856 9.16239 6.60406C8.19189 6.41656 7.16289 6.80057 6.42639 7.09607C5.69139 7.39007 4.29339 8.22707 3.31539 10.4516C2.33739 12.6746 2.84889 16.1966 3.21489 17.2916C3.58089 18.3851 4.15239 20.1776 5.12439 21.4856C5.98839 22.9616 7.13439 23.9861 7.61289 24.3341C8.09139 24.6821 9.44139 24.9131 10.3774 24.4346C11.1304 23.9726 12.4894 23.7071 13.0264 23.7266C13.5619 23.7461 14.6179 23.9576 15.6994 24.5351C16.5559 24.8306 17.3659 24.7076 18.1774 24.3776C18.9889 24.0461 20.1634 22.7891 21.5344 20.2406C22.0549 19.0556 22.2919 18.4151 22.2439 18.3176Z" fill="black"/>
</g>
<defs>
<clipPath id="clip0_3450_2758">
<rect width="24" height="24" fill="white" transform="translate(0.5 0.706055)"/>
</clipPath>
</defs>
</svg>
