<svg width="21" height="25" viewBox="0 0 21 25" fill="none" xmlns="http://www.w3.org/2000/svg">
<path d="M15.273 0.612108C15.222 0.555108 13.3845 0.634608 11.7855 2.37011C10.1865 4.10411 10.4325 6.09311 10.4685 6.14411C10.5045 6.19511 12.7485 6.27461 14.181 4.25711C15.6135 2.23961 15.324 0.670608 15.273 0.612108ZM20.244 18.2116C20.172 18.0676 16.7565 16.3606 17.0745 13.0786C17.3925 9.79511 19.587 8.89511 19.6215 8.79761C19.656 8.70011 18.726 7.61261 17.7405 7.06211C17.0169 6.67399 16.2161 6.45162 15.396 6.41111C15.234 6.40661 14.6715 6.26861 13.515 6.58511C12.753 6.79361 11.0355 7.46861 10.563 7.49561C10.089 7.52261 8.67901 6.71261 7.16251 6.49811C6.19201 6.31061 5.16301 6.69461 4.42651 6.99011C3.69151 7.28411 2.29351 8.12111 1.31551 10.3456C0.337511 12.5686 0.849011 16.0906 1.21501 17.1856C1.58101 18.2791 2.15251 20.0716 3.12451 21.3796C3.98851 22.8556 5.13451 23.8801 5.61301 24.2281C6.09151 24.5761 7.44151 24.8071 8.37751 24.3286C9.13051 23.8666 10.4895 23.6011 11.0265 23.6206C11.562 23.6401 12.618 23.8516 13.6995 24.4291C14.556 24.7246 15.366 24.6016 16.1775 24.2716C16.989 23.9401 18.1635 22.6831 19.5345 20.1346C20.055 18.9496 20.292 18.3091 20.244 18.2116Z" fill="white"/>
</svg>
