<svg width="24" height="24" viewBox="0 0 24 24" fill="none" xmlns="http://www.w3.org/2000/svg">
<g clip-path="url(#clip0_2050_11620)">
<path d="M23.5959 11.2098L21.2204 9.43247C20.7139 9.05233 20.0876 8.846 19.4427 8.846H17.6939V6.5155C17.6939 5.95955 17.2431 5.50879 16.6872 5.50879H4.15893C3.60298 5.50879 3.15222 5.95955 3.15222 6.5155V8.846H1.06285C0.475973 8.846 0 9.29765 0 9.8548V14.1469C0 14.7025 0.475973 15.1541 1.06285 15.1541H3.15222V17.4846C3.15222 18.0406 3.60298 18.4913 4.15893 18.4913H16.6872C17.2431 18.4913 17.6939 18.0406 17.6939 17.4846V15.1541H19.4427C20.0876 15.1541 20.7139 14.9479 21.2204 14.5694L23.5959 12.7921C23.8514 12.6003 24 12.3096 24 12.0009C24 11.6923 23.8513 11.4014 23.5959 11.2098ZM16.6679 12.7904C16.2313 12.7904 15.8776 12.4364 15.8776 12.0001C15.8776 11.5637 16.2313 11.2098 16.6679 11.2098C17.1044 11.2098 17.4582 11.5637 17.4582 12.0001C17.4582 12.4364 17.1045 12.7904 16.6679 12.7904ZM15.6805 16.4779H5.16564V7.52221H15.6805V8.85816H6.60185V11.1947H9.10067C9.5454 11.1947 9.90604 11.5553 9.90604 12.0001C9.90604 12.4449 9.5454 12.8054 9.10067 12.8054H6.60185V15.142H15.6805V16.4779ZM13.9645 12.0001C13.9645 12.4363 13.6107 12.7904 13.1741 12.7904C12.7376 12.7904 12.3838 12.4364 12.3838 12.0001C12.3838 11.5637 12.7376 11.2098 13.1741 11.2098C13.6107 11.2098 13.9645 11.5638 13.9645 12.0001Z" fill="#949494"/>
</g>
<defs>
<clipPath id="clip0_2050_11620">
<rect width="24" height="24" fill="white"/>
</clipPath>
</defs>
</svg>
