<svg width="42" height="61" viewBox="0 0 42 61" fill="none" xmlns="http://www.w3.org/2000/svg">
<g clip-path="url(#clip0_2254_17440)">
<path d="M19.1782 19.2419C18.4111 21.0639 17.6759 22.8219 16.8768 24.7397C18.507 25.0593 20.0412 25.347 21.5755 25.6666C24.1645 26.21 25.475 27.8401 25.0915 30.4611C24.4202 34.968 23.5892 39.4429 22.7262 43.9177C22.4065 45.6438 20.9362 46.5388 19.3061 46.2191C17.7718 45.8995 16.8768 44.4931 17.1645 42.7031C17.7079 39.5707 18.2832 36.4703 18.8905 33.3378C19.2741 31.3241 19.1782 31.1643 17.2284 30.7808C14.7353 30.3013 12.2421 29.8858 9.74899 29.3744C6.74443 28.7351 5.46589 26.3698 6.58461 23.525C7.83118 20.3287 9.14169 17.1324 10.4842 13.968C11.5389 11.4748 13.7444 10.5479 16.2056 11.6346C17.9956 12.4337 19.8495 13.1689 21.3517 14.3835C23.717 16.2693 26.1782 17.484 29.2147 17.6118C30.8129 17.6757 31.8357 18.9543 31.7079 20.3287C31.58 21.831 30.3654 22.726 28.6714 22.6301C28.4157 22.5981 28.16 22.5661 27.8723 22.5342C26.2741 22.2465 24.612 22.2465 23.1737 21.7351C21.7673 21.2237 20.5846 20.1369 19.1782 19.2419Z" fill="#2976BA"/>
<path d="M8.8218 37.3983C8.69394 36.2476 8.59805 35.097 8.4702 33.8823C7.73504 33.7225 6.93595 33.7225 6.32865 33.3709C5.8492 33.0833 5.40171 32.3801 5.40171 31.8686C5.40171 31.5171 6.29668 30.8778 6.71221 30.9097C9.23732 31.2613 11.7305 31.6769 14.1917 32.2522C14.6072 32.3481 15.0866 33.2431 15.0866 33.7865C15.0866 34.1061 14.2556 34.6175 13.7442 34.6814C13.041 34.7773 12.2739 34.5216 11.4428 34.3938C11.4428 35.3846 11.4428 36.3435 11.4428 37.3664C12.7853 37.654 14.0638 37.9417 15.5022 38.2613C15.3423 39.0924 15.2145 39.8595 15.0547 40.7225C13.936 40.5627 12.9131 40.3709 11.8903 40.2431C7.44737 39.6677 3.35605 42.7362 2.81267 46.9874C2.23732 51.4942 5.20993 55.5536 9.7807 55.9371C13.5844 56.2568 17.388 56.097 21.2236 56.1289C23.6528 56.1609 26.114 56.1289 28.5433 56.1289C31.388 56.1289 33.146 54.8823 33.6255 52.549C34.1688 50.0878 33.0821 48.1061 30.557 46.9554C28.799 46.1244 27.009 45.3572 25.1232 44.4942C25.251 43.6632 25.4108 42.8641 25.5387 41.8732C27.009 42.4805 28.3195 42.9919 29.7579 43.5673C31.8035 36.8869 33.8492 30.2705 35.8949 23.5901C34.904 23.5262 34.1049 23.4942 33.2419 23.4623C33.6894 21.8002 34.2647 20.4257 36.4063 20.8732C36.7898 20.9371 37.3652 20.5536 37.7168 20.202C38.5478 19.3709 39.1871 18.3801 40.0821 17.6449C40.4656 17.3253 41.2647 17.5171 41.904 17.4531C41.936 18.0604 41.9999 18.6997 41.9999 19.307C41.9999 19.4349 41.8081 19.5627 41.7122 19.6586C39.1551 21.7682 38.2282 24.6769 37.3652 27.7134C35.8629 32.9554 34.2328 38.1335 32.6026 43.3435C32.3149 44.2385 32.3789 44.718 33.2419 45.2933C35.8629 47.1152 36.7898 49.7043 36.2145 52.8047C35.6392 55.7773 33.7853 57.6312 30.8446 58.4623C30.4611 58.5581 30.1734 58.9417 29.8538 59.1974C29.3104 59.581 28.735 60.2842 28.1917 60.2522C27.5524 60.2522 26.9451 59.6129 26.3058 59.2613C25.8903 59.0376 25.5067 58.6221 25.0912 58.6221C20.9679 58.5581 16.8127 58.5581 12.6894 58.6221C12.2739 58.6221 11.6665 58.9737 11.5387 59.2933C11.0912 60.412 10.1643 60.5399 9.33321 60.2842C8.78984 60.1244 8.40627 59.3892 7.95879 58.8778C7.70308 58.5901 7.54326 58.1746 7.25559 58.0148C2.20536 55.5216 -0.223863 51.9417 0.0957714 47.4668C0.479333 42.3527 3.99532 38.6769 8.63002 37.6221C8.59805 37.654 8.63002 37.5901 8.8218 37.3983Z" fill="#2976BA"/>
<path d="M19.4974 11.0597C16.5887 11.0597 14.0317 8.50258 13.9997 5.56194C13.9358 2.55737 16.5248 -0.0316706 19.5613 0.000292851C22.5979 0.0322563 25.0271 2.46148 25.0591 5.46605C25.0591 8.50258 22.502 11.0597 19.4974 11.0597Z" fill="#2976BA"/>
<path d="M18.1232 49.6074C17.484 49.5755 16.8447 49.5435 16.2374 49.4476C14.9269 49.2878 13.8401 49.1599 12.7853 50.4704C11.7305 51.8129 9.42918 51.4933 8.31045 50.1508C7.15977 48.8083 7.31959 46.7627 8.66205 45.612C10.0365 44.4293 12.21 44.4933 13.1369 46.0275C13.9041 47.2741 14.831 47.37 16.0136 47.4019C17.2922 47.4339 18.5707 47.4659 19.7853 47.6896C20.2648 47.7855 20.6484 48.3609 21.0639 48.7124C20.6164 49.0321 20.2009 49.4796 19.6894 49.6394C19.21 49.7992 18.6347 49.6074 18.1232 49.6074Z" fill="#2976BA"/>
</g>
<defs>
<clipPath id="clip0_2254_17440">
<rect width="42" height="60.411" fill="white"/>
</clipPath>
</defs>
</svg>
