<svg width="22" height="22" viewBox="0 0 22 22" fill="none" xmlns="http://www.w3.org/2000/svg">
<path d="M2.75 8.25033C2.75 7.7641 2.94315 7.29778 3.28697 6.95396C3.63079 6.61015 4.0971 6.41699 4.58333 6.41699H5.43583C5.73759 6.41704 6.03468 6.3426 6.30077 6.20028C6.56685 6.05797 6.79369 5.85217 6.96117 5.60116L7.7055 4.48283C7.87297 4.23181 8.09981 4.02602 8.3659 3.8837C8.63198 3.74139 8.92908 3.66695 9.23083 3.66699H12.7692C13.0709 3.66695 13.368 3.74139 13.6341 3.8837C13.9002 4.02602 14.127 4.23181 14.2945 4.48283L15.0388 5.60116C15.2063 5.85217 15.4331 6.05797 15.6992 6.20028C15.9653 6.3426 16.2624 6.41704 16.5642 6.41699H17.4167C17.9029 6.41699 18.3692 6.61015 18.713 6.95396C19.0568 7.29778 19.25 7.7641 19.25 8.25033V16.5003C19.25 16.9866 19.0568 17.4529 18.713 17.7967C18.3692 18.1405 17.9029 18.3337 17.4167 18.3337H4.58333C4.0971 18.3337 3.63079 18.1405 3.28697 17.7967C2.94315 17.4529 2.75 16.9866 2.75 16.5003V8.25033Z" stroke="#797979" stroke-width="1.83333" stroke-linecap="round" stroke-linejoin="round"/>
<path d="M13.75 11.917C13.75 12.6463 13.4603 13.3458 12.9445 13.8615C12.4288 14.3773 11.7293 14.667 11 14.667C10.2707 14.667 9.57118 14.3773 9.05546 13.8615C8.53973 13.3458 8.25 12.6463 8.25 11.917C8.25 11.1876 8.53973 10.4882 9.05546 9.97245C9.57118 9.45672 10.2707 9.16699 11 9.16699C11.7293 9.16699 12.4288 9.45672 12.9445 9.97245C13.4603 10.4882 13.75 11.1876 13.75 11.917Z" stroke="#797979" stroke-width="1.83333" stroke-linecap="round" stroke-linejoin="round"/>
</svg>
