<svg width="24" height="25" viewBox="0 0 24 25" fill="none" xmlns="http://www.w3.org/2000/svg">
<path fill-rule="evenodd" clip-rule="evenodd" d="M6.25 3.82617C3.5 3.82617 3.5 4.03417 3.5 6.57617V6.60117C3.5 7.70817 3.5 8.50817 3.771 8.84617C4.036 9.17417 4.823 9.32617 6.25 9.32617C7.677 9.32617 8.464 9.17317 8.729 8.84517C9 8.50817 9 7.70817 9 6.60017C9 4.03417 9 3.82617 6.25 3.82617ZM6.25 10.8262C4.564 10.8262 3.299 10.6492 2.604 9.78617C2 9.03717 2 8.01517 2 6.60117L2.75 6.57617H2C2 3.70617 2.181 2.32617 6.25 2.32617C10.319 2.32617 10.5 3.70617 10.5 6.57617C10.5 8.01417 10.5 9.03717 9.896 9.78617C9.201 10.6492 7.936 10.8262 6.25 10.8262Z" fill="#797979"/>
<path fill-rule="evenodd" clip-rule="evenodd" d="M17.25 3.82617C14.5 3.82617 14.5 4.03417 14.5 6.57617V6.60117C14.5 7.70817 14.5 8.50817 14.771 8.84617C15.036 9.17417 15.823 9.32617 17.25 9.32617C18.677 9.32617 19.464 9.17317 19.729 8.84517C20 8.50817 20 7.70817 20 6.60017C20 4.03417 20 3.82617 17.25 3.82617ZM17.25 10.8262C15.564 10.8262 14.299 10.6492 13.604 9.78617C13 9.03717 13 8.01517 13 6.60117L13.75 6.57617H13C13 3.70617 13.181 2.32617 17.25 2.32617C21.319 2.32617 21.5 3.70617 21.5 6.57617C21.5 8.01417 21.5 9.03717 20.896 9.78617C20.201 10.6492 18.936 10.8262 17.25 10.8262Z" fill="#797979"/>
<path fill-rule="evenodd" clip-rule="evenodd" d="M6.25 14.8262C3.5 14.8262 3.5 15.0342 3.5 17.5762V17.6012C3.5 18.7082 3.5 19.5082 3.771 19.8462C4.036 20.1742 4.823 20.3262 6.25 20.3262C7.677 20.3262 8.464 20.1732 8.729 19.8452C9 19.5082 9 18.7082 9 17.6002C9 15.0342 9 14.8262 6.25 14.8262ZM6.25 21.8262C4.564 21.8262 3.299 21.6492 2.604 20.7862C2 20.0372 2 19.0152 2 17.6012L2.75 17.5762H2C2 14.7062 2.181 13.3262 6.25 13.3262C10.319 13.3262 10.5 14.7062 10.5 17.5762C10.5 19.0142 10.5 20.0372 9.896 20.7862C9.201 21.6492 7.936 21.8262 6.25 21.8262Z" fill="#797979"/>
<path fill-rule="evenodd" clip-rule="evenodd" d="M17.25 14.8262C14.5 14.8262 14.5 15.0342 14.5 17.5762V17.6012C14.5 18.7082 14.5 19.5082 14.771 19.8462C15.036 20.1742 15.823 20.3262 17.25 20.3262C18.677 20.3262 19.464 20.1732 19.729 19.8452C20 19.5082 20 18.7082 20 17.6002C20 15.0342 20 14.8262 17.25 14.8262ZM17.25 21.8262C15.564 21.8262 14.299 21.6492 13.604 20.7862C13 20.0372 13 19.0152 13 17.6012L13.75 17.5762H13C13 14.7062 13.181 13.3262 17.25 13.3262C21.319 13.3262 21.5 14.7062 21.5 17.5762C21.5 19.0142 21.5 20.0372 20.896 20.7862C20.201 21.6492 18.936 21.8262 17.25 21.8262Z" fill="#797979"/>
</svg>
