<svg width="24" height="25" viewBox="0 0 24 25" fill="none" xmlns="http://www.w3.org/2000/svg">
<path fill-rule="evenodd" clip-rule="evenodd" d="M8.982 7.20365C8.95 7.20365 8.918 7.20765 8.886 7.21565C5.916 7.94665 3.5 11.1646 3.5 14.3886C3.5 18.4446 6.8 21.7446 10.857 21.7446C14.514 21.7446 17.57 19.1396 18.124 15.5496C18.128 15.5196 18.142 15.4326 18.06 15.3356C17.982 15.2446 17.858 15.1906 17.728 15.1906C16.317 15.1906 15.24 15.2226 14.399 15.2466C12.363 15.3076 11.521 15.3306 10.689 14.7136C9.435 13.7846 9.329 12.1886 9.329 7.49465C9.329 7.41065 9.293 7.34065 9.221 7.28465C9.154 7.23165 9.069 7.20365 8.982 7.20365ZM10.857 23.2446C5.973 23.2446 2 19.2716 2 14.3886C2 10.5166 4.928 6.64465 8.527 5.75865C9.089 5.62165 9.693 5.74965 10.147 6.10365C10.58 6.44365 10.829 6.95065 10.829 7.49465C10.829 11.8796 10.977 13.0596 11.582 13.5086C11.979 13.8016 12.523 13.7986 14.356 13.7476C15.208 13.7226 16.299 13.6906 17.728 13.6906C18.298 13.6906 18.835 13.9346 19.199 14.3596C19.537 14.7546 19.685 15.2706 19.607 15.7786C18.939 20.1036 15.259 23.2446 10.857 23.2446Z" fill="#BDBDBD"/>
<mask id="mask0_1103_10638" style="mask-type:luminance" maskUnits="userSpaceOnUse" x="12" y="1" width="11" height="12">
<path fill-rule="evenodd" clip-rule="evenodd" d="M12.4736 1.90063H22.8926V12.1899H12.4736V1.90063Z" fill="white"/>
</mask>
<g mask="url(#mask0_1103_10638)">
<path fill-rule="evenodd" clip-rule="evenodd" d="M14.0104 3.40189C13.9004 5.92089 14.0634 9.17489 14.1394 10.4639C14.1434 10.5409 14.1994 10.5969 14.2754 10.6009C15.3034 10.6599 18.8454 10.8239 21.3924 10.4489C21.3984 9.04489 20.4374 7.14089 18.9904 5.69489C17.5064 4.21289 15.7504 3.40189 14.0324 3.40189H14.0104ZM17.3144 12.1899C16.0044 12.1899 14.8514 12.1369 14.1884 12.0989C13.3544 12.0499 12.6904 11.3849 12.6424 10.5509C12.5644 9.22889 12.3954 5.86989 12.5154 3.27189C12.5484 2.51689 13.1584 1.91589 13.9044 1.90289C16.0414 1.84089 18.2464 2.83289 20.0504 4.63389C21.8084 6.39089 22.9244 8.69989 22.8924 10.5169C22.8804 11.2259 22.3654 11.8179 21.6694 11.9229C20.3114 12.1279 18.7214 12.1899 17.3144 12.1899Z" fill="#BDBDBD"/>
</g>
</svg>
