<svg width="20" height="21" viewBox="0 0 20 21" fill="none" xmlns="http://www.w3.org/2000/svg">
<g clip-path="url(#clip0_4252_2756)">
<path d="M15.5014 11.0662H4.31626C3.89682 11.0662 3.61719 11.3448 3.61719 11.7627C3.61719 12.1807 3.89682 12.4593 4.31626 12.4593H15.5014C15.9209 12.4593 16.2005 12.1807 16.2005 11.7627C16.2005 11.3448 15.9209 11.0662 15.5014 11.0662Z" fill="#B6CFEB"/>
<path d="M15.5014 4.10034H4.31626C3.89682 4.10034 3.61719 4.37898 3.61719 4.79693C3.61719 5.21488 3.89682 5.49351 4.31626 5.49351H15.5014C15.9209 5.49351 16.2005 5.21488 16.2005 4.79693C16.2005 4.37898 15.9209 4.10034 15.5014 4.10034Z" fill="#B6CFEB"/>
<path d="M15.5014 7.58325H4.31626C3.89682 7.58325 3.61719 7.86189 3.61719 8.27984C3.61719 8.69779 3.89682 8.97642 4.31626 8.97642H15.5014C15.9209 8.97642 16.2005 8.69779 16.2005 8.27984C16.2005 7.86189 15.9209 7.58325 15.5014 7.58325Z" fill="#B6CFEB"/>
<path d="M16.2003 0.617432H3.61695C1.65954 0.617432 0.121582 2.14992 0.121582 4.10036V18.1017C0.121582 19.2859 1.03038 20.1915 2.2188 20.1915C2.63825 20.1915 3.05769 20.0522 3.47714 19.7735L8.23084 16.3603C8.58038 16.0816 9.06973 15.8727 9.55908 15.8727H16.2003C18.1577 15.8727 19.6956 14.3402 19.6956 12.3897V4.10036C19.6956 2.14992 18.1577 0.617432 16.2003 0.617432ZM18.2975 12.4594C18.2975 13.6436 17.3887 14.5492 16.2003 14.5492H9.48917C8.72019 14.5492 7.95121 14.8278 7.32204 15.3154L2.56834 18.659C2.35862 18.7983 2.07899 18.7983 1.86927 18.7287C1.65954 18.5894 1.51973 18.3804 1.51973 18.1017V4.10036C1.51973 2.91617 2.42853 2.0106 3.61695 2.0106H16.2003C17.3887 2.0106 18.2975 2.91617 18.2975 4.10036V12.4594Z" fill="#B6CFEB"/>
</g>
<defs>
<clipPath id="clip0_4252_2756">
<rect width="19.5741" height="19.5741" fill="white" transform="translate(0.121582 0.617432)"/>
</clipPath>
</defs>
</svg>
