<svg width="22" height="22" viewBox="0 0 22 22" fill="none" xmlns="http://www.w3.org/2000/svg">
<path fill-rule="evenodd" clip-rule="evenodd" d="M10.8425 19.518C13.143 19.518 15.3492 18.6041 16.9759 16.9774C18.6026 15.3507 19.5165 13.1444 19.5165 10.8439C19.5165 8.54345 18.6026 6.33718 16.9759 4.71048C15.3492 3.08379 13.143 2.16992 10.8425 2.16992C8.54198 2.16992 6.33571 3.08379 4.70902 4.71048C3.08232 6.33718 2.16846 8.54345 2.16846 10.8439C2.16846 13.1444 3.08232 15.3507 4.70902 16.9774C6.33571 18.6041 8.54198 19.518 10.8425 19.518ZM14.8618 9.442C15.0593 9.23751 15.1686 8.96362 15.1661 8.67934C15.1636 8.39505 15.0496 8.1231 14.8486 7.92208C14.6476 7.72105 14.3756 7.60702 14.0913 7.60455C13.807 7.60208 13.5332 7.71136 13.3287 7.90887L9.75822 11.4793L8.35628 10.0774C8.15179 9.87987 7.87791 9.77058 7.59362 9.77305C7.30933 9.77552 7.03739 9.88955 6.83636 10.0906C6.63533 10.2916 6.5213 10.5636 6.51883 10.8478C6.51636 11.1321 6.62565 11.406 6.82315 11.6105L8.99165 13.779C9.19498 13.9823 9.47072 14.0965 9.75822 14.0965C10.0457 14.0965 10.3215 13.9823 10.5248 13.779L14.8618 9.442Z" fill="#4ADE80"/>
</svg>
