<svg width="33" height="33" viewBox="0 0 33 33" fill="none" xmlns="http://www.w3.org/2000/svg">
<path fill-rule="evenodd" clip-rule="evenodd" d="M16.015 28.827C19.413 28.827 22.6717 27.4771 25.0744 25.0744C27.4771 22.6717 28.827 19.413 28.827 16.015C28.827 12.6171 27.4771 9.35835 25.0744 6.95565C22.6717 4.55295 19.413 3.20313 16.015 3.20312C12.6171 3.20313 9.35835 4.55295 6.95565 6.95565C4.55295 9.35835 3.20313 12.6171 3.20312 16.015C3.20313 19.413 4.55295 22.6717 6.95565 25.0744C9.35835 27.4771 12.6171 28.827 16.015 28.827ZM13.9443 11.6798C13.6423 11.3881 13.2377 11.2267 12.8178 11.2303C12.3979 11.234 11.9962 11.4024 11.6993 11.6993C11.4024 11.9962 11.234 12.3979 11.2303 12.8178C11.2267 13.2377 11.3881 13.6423 11.6798 13.9443L13.7505 16.015L11.6798 18.0858C11.5268 18.2335 11.4048 18.4102 11.3209 18.6056C11.237 18.801 11.1928 19.0111 11.191 19.2238C11.1891 19.4364 11.2296 19.6473 11.3101 19.8441C11.3907 20.0409 11.5096 20.2198 11.66 20.3701C11.8103 20.5205 11.9891 20.6394 12.186 20.7199C12.3828 20.8005 12.5937 20.841 12.8063 20.8391C13.0189 20.8373 13.2291 20.7931 13.4245 20.7092C13.6199 20.6252 13.7966 20.5032 13.9443 20.3503L16.015 18.2795L18.0858 20.3503C18.3878 20.642 18.7923 20.8034 19.2123 20.7998C19.6322 20.7961 20.0338 20.6277 20.3308 20.3308C20.6277 20.0338 20.7961 19.6322 20.7998 19.2123C20.8034 18.7923 20.642 18.3878 20.3503 18.0858L18.2795 16.015L20.3503 13.9443C20.642 13.6423 20.8034 13.2377 20.7998 12.8178C20.7961 12.3979 20.6277 11.9962 20.3308 11.6993C20.0338 11.4024 19.6322 11.234 19.2123 11.2303C18.7923 11.2267 18.3878 11.3881 18.0858 11.6798L16.015 13.7505L13.9443 11.6798Z" fill="white"/>
</svg>
