<svg width="48" height="48" viewBox="0 0 48 48" fill="none" xmlns="http://www.w3.org/2000/svg">
<g clip-path="url(#clip0_2262_17476)">
<path d="M40.9703 7.02946C36.4375 2.49653 30.4104 0 24.0001 0C17.5893 0 11.5625 2.49653 7.02946 7.02946C2.49666 11.5625 0 17.5893 0 23.9999C0 30.4104 2.49666 36.4374 7.02946 40.9704C11.5625 45.5032 17.5893 47.9998 24.0001 47.9998C30.4104 47.9998 36.4375 45.5032 40.9703 40.9704C45.5033 36.4375 48 30.4104 48 23.9999C48 17.5893 45.5033 11.5625 40.9703 7.02946ZM39.9895 17.0762C40.2379 17.1775 40.433 17.3766 40.53 17.6265C40.804 18.3352 41.0342 19.0685 41.2141 19.8062C41.277 20.0632 41.2324 20.3349 41.0907 20.5583C40.9492 20.7818 40.7226 20.9382 40.4635 20.9913L31.0335 22.922C30.9677 22.9353 30.902 22.9419 30.837 22.9419C30.4232 22.9419 30.0439 22.6766 29.9114 22.2686C29.7582 21.7972 29.9835 21.2859 30.435 21.0808L39.2188 17.091C39.4628 16.9802 39.7416 16.9749 39.9895 17.0762ZM29.6555 14.9641L30.3463 8.83339C30.3816 8.51892 30.5679 8.24118 30.845 8.08885C31.1227 7.93639 31.4568 7.92834 31.741 8.06696C33.6833 9.01377 35.4209 10.2949 36.9058 11.8747C37.121 12.1037 37.2126 12.4223 37.1517 12.7305C37.091 13.0389 36.8852 13.2988 36.5989 13.4287L31.0263 15.96C30.8976 16.0184 30.76 16.0471 30.6234 16.0471C30.421 16.0471 30.2203 15.9841 30.0509 15.8611C29.7673 15.655 29.6161 15.3124 29.6555 14.9641ZM22.159 6.66807C22.3299 6.46378 22.5771 6.3385 22.8427 6.32114C23.6117 6.27082 24.3883 6.27082 25.1573 6.32114C25.4228 6.3385 25.67 6.46378 25.841 6.66807C26.0117 6.87235 26.0916 7.13751 26.0617 7.40217L24.9679 17.1089C24.9126 17.6016 24.496 17.974 24.0004 17.974C23.5044 17.974 23.0879 17.6016 23.0324 17.1089L21.9384 7.40217C21.9084 7.13763 21.9883 6.87235 22.159 6.66807ZM24.0001 21.0662C25.6202 21.0662 26.9338 22.3797 26.9338 23.9999C26.9338 25.62 25.6202 26.9335 24.0001 26.9335C22.3798 26.9335 21.0665 25.62 21.0665 23.9999C21.0665 22.3797 22.3798 21.0662 24.0001 21.0662ZM11.0939 11.8745C12.5789 10.2947 14.3165 9.01352 16.259 8.06671C16.543 7.92797 16.8776 7.93614 17.1547 8.08872C17.4321 8.24118 17.6184 8.51867 17.6537 8.83314L18.3443 14.964C18.3837 15.3123 18.2327 15.6549 17.9492 15.861C17.7796 15.984 17.5787 16.047 17.3762 16.047C17.2396 16.047 17.1022 16.0182 16.9736 15.9598L11.4007 13.4286C11.1148 13.2985 10.9089 13.0386 10.8479 12.7303C10.7874 12.4221 10.8787 12.1034 11.0939 11.8745ZM6.78568 19.8062C6.96555 19.0687 7.19575 18.3354 7.47009 17.6264C7.5667 17.3765 7.76217 17.1775 8.01036 17.0761C8.25829 16.9748 8.53716 16.9801 8.78132 17.0912L17.5644 21.0807C18.0157 21.2857 18.2413 21.7971 18.0879 22.2685C17.9555 22.6762 17.5765 22.9417 17.1622 22.9417C17.0973 22.9417 17.0318 22.9353 16.9661 22.9219L7.53664 20.9913C7.27738 20.9382 7.05096 20.7819 6.9092 20.5584C6.76781 20.3349 6.72303 20.0634 6.78568 19.8062ZM9.30812 32.9942C9.2695 32.9942 9.23076 32.9918 9.19164 32.9872C8.87968 32.9497 8.60496 32.7637 8.45364 32.4879C7.45148 30.6571 6.78668 28.683 6.47837 26.6197C6.4312 26.3052 6.54077 25.9876 6.77146 25.7687C7.00241 25.55 7.32594 25.4574 7.63702 25.5213L13.4784 26.7173C13.8218 26.7876 14.1012 27.0369 14.2094 27.3704C14.3177 27.7039 14.2385 28.07 14.0021 28.3285L10.0274 32.6769C9.84146 32.8806 9.57982 32.9942 9.30812 32.9942ZM15.3671 39.137C15.2885 39.1568 15.2084 39.1666 15.1287 39.1666C14.9472 39.1666 14.7674 39.1158 14.6109 39.0175C13.9834 38.6236 13.3739 38.1855 12.7993 37.7151C12.5922 37.5456 12.4639 37.2985 12.4448 37.0316C12.4254 36.7645 12.5167 36.5016 12.6971 36.3039L19.0549 29.3484C19.3895 28.9827 19.9454 28.9263 20.3465 29.2177C20.7476 29.5089 20.8658 30.0552 20.6212 30.4864L15.9761 38.6728C15.8447 38.9045 15.6249 39.0719 15.3671 39.137ZM27.7398 40.9134C27.6042 41.2 27.3377 41.403 27.025 41.4567C26.0326 41.6287 25.015 41.7157 23.9996 41.7157C22.9843 41.7157 21.9666 41.6288 20.9743 41.4567C20.6621 41.4026 20.3954 41.2 20.2598 40.9134C20.1244 40.6269 20.1366 40.2923 20.2933 40.0163L23.1524 34.9771C23.3254 34.6722 23.6489 34.4837 23.9997 34.4837C24.3503 34.4837 24.6736 34.6722 24.8468 34.9771L27.7059 40.0163C27.863 40.2922 27.8753 40.6269 27.7398 40.9134ZM35.5552 37.032C35.5358 37.2988 35.4074 37.5459 35.2005 37.7155C34.6256 38.186 34.0161 38.624 33.3889 39.0177C33.2325 39.1159 33.0525 39.167 32.8714 39.167C32.7914 39.167 32.7115 39.1572 32.6329 39.1373C32.3751 39.0724 32.155 38.9047 32.0238 38.6735L27.3789 30.4872C27.1343 30.056 27.2524 29.5097 27.6537 29.2185C28.0548 28.9269 28.6105 28.9835 28.9453 29.3492L35.3029 36.3047C35.4833 36.5022 35.5746 36.7649 35.5552 37.032ZM39.5461 32.4879C39.3953 32.7637 39.1203 32.9497 38.8081 32.9874C38.7692 32.992 38.7306 32.9943 38.6916 32.9943C38.4199 32.9943 38.1585 32.8806 37.9727 32.6773L33.9981 28.3289C33.7613 28.07 33.682 27.704 33.7905 27.3706C33.8988 27.0373 34.1782 26.7877 34.5217 26.7174L40.3629 25.5217C40.6747 25.4578 40.9975 25.5503 41.2284 25.7691C41.4594 25.9877 41.5689 26.3055 41.5217 26.6201C41.2131 28.683 40.5485 30.6574 39.5461 32.4879Z" fill="#2976BA"/>
</g>
<defs>
<clipPath id="clip0_2262_17476">
<rect width="48" height="48" fill="white"/>
</clipPath>
</defs>
</svg>
