<svg width="24" height="24" viewBox="0 0 24 24" fill="none" xmlns="http://www.w3.org/2000/svg">
<path d="M15.172 7.00016L8.58599 13.5862C8.39497 13.7707 8.2426 13.9913 8.13779 14.2354C8.03297 14.4794 7.9778 14.7418 7.97549 15.0074C7.97318 15.2729 8.02378 15.5363 8.12435 15.7821C8.22491 16.0279 8.37341 16.2512 8.5612 16.439C8.74898 16.6267 8.97229 16.7752 9.21808 16.8758C9.46387 16.9764 9.72723 17.027 9.99279 17.0247C10.2584 17.0224 10.5208 16.9672 10.7648 16.8624C11.0088 16.7575 11.2295 16.6052 11.414 16.4142L17.828 9.82816C18.5566 9.07376 18.9598 8.06335 18.9507 7.01456C18.9416 5.96577 18.5209 4.96252 17.7793 4.22089C17.0376 3.47926 16.0344 3.05858 14.9856 3.04947C13.9368 3.04035 12.9264 3.44353 12.172 4.17216L5.75699 10.7572C4.63168 11.8825 3.99948 13.4087 3.99948 15.0002C3.99948 16.5916 4.63168 18.1179 5.75699 19.2432C6.8823 20.3685 8.40856 21.0007 9.99999 21.0007C11.5914 21.0007 13.1177 20.3685 14.243 19.2432L20.5 13.0002" stroke="white" stroke-width="2" stroke-linecap="round" stroke-linejoin="round"/>
</svg>
