<svg width="33" height="33" viewBox="0 0 33 33" fill="none" xmlns="http://www.w3.org/2000/svg">
<path fill-rule="evenodd" clip-rule="evenodd" d="M7.08347 7.08356C7.39289 6.77423 7.8125 6.60046 8.25002 6.60046C8.68754 6.60046 9.10715 6.77423 9.41657 7.08356L16.5 14.167L23.5835 7.08356C23.7357 6.92597 23.9177 6.80027 24.1191 6.71379C24.3204 6.62732 24.5369 6.5818 24.756 6.5799C24.975 6.57799 25.1923 6.61974 25.3951 6.7027C25.5979 6.78567 25.7821 6.90818 25.937 7.06311C26.0919 7.21803 26.2145 7.40226 26.2974 7.60504C26.3804 7.80781 26.4221 8.02509 26.4202 8.24417C26.4183 8.46326 26.3728 8.67977 26.2863 8.88108C26.1999 9.08238 26.0742 9.26445 25.9166 9.41666L18.8331 16.5001L25.9166 23.5836C26.2171 23.8948 26.3834 24.3115 26.3797 24.7442C26.3759 25.1768 26.2024 25.5906 25.8965 25.8966C25.5905 26.2025 25.1767 26.376 24.7441 26.3798C24.3115 26.3835 23.8947 26.2172 23.5835 25.9167L16.5 18.8332L9.41657 25.9167C9.10538 26.2172 8.68858 26.3835 8.25596 26.3798C7.82333 26.376 7.40949 26.2025 7.10357 25.8966C6.79765 25.5906 6.62412 25.1768 6.62036 24.7442C6.6166 24.3115 6.78291 23.8948 7.08347 23.5836L14.1669 16.5001L7.08347 9.41666C6.77414 9.10724 6.60037 8.68763 6.60037 8.25011C6.60037 7.81259 6.77414 7.39298 7.08347 7.08356Z" fill="white"/>
</svg>
