<svg width="35" height="35" viewBox="0 0 35 35" fill="none" xmlns="http://www.w3.org/2000/svg">
<path fill-rule="evenodd" clip-rule="evenodd" d="M30.2324 16.6162C30.2324 20.2275 28.7979 23.6908 26.2443 26.2443C23.6908 28.7979 20.2275 30.2324 16.6162 30.2324C13.005 30.2324 9.54163 28.7979 6.9881 26.2443C4.43456 23.6908 3 20.2275 3 16.6162C3 13.005 4.43456 9.54163 6.9881 6.9881C9.54163 4.43456 13.005 3 16.6162 3C20.2275 3 23.6908 4.43456 26.2443 6.9881C28.7979 9.54163 30.2324 13.005 30.2324 16.6162ZM18.3182 9.80811C18.3182 10.2595 18.1389 10.6924 17.8197 11.0116C17.5005 11.3308 17.0676 11.5101 16.6162 11.5101C16.1648 11.5101 15.7319 11.3308 15.4127 11.0116C15.0935 10.6924 14.9142 10.2595 14.9142 9.80811C14.9142 9.3567 15.0935 8.92378 15.4127 8.60459C15.7319 8.2854 16.1648 8.10608 16.6162 8.10608C17.0676 8.10608 17.5005 8.2854 17.8197 8.60459C18.1389 8.92378 18.3182 9.3567 18.3182 9.80811ZM14.9142 14.9142C14.4628 14.9142 14.0299 15.0935 13.7107 15.4127C13.3915 15.7319 13.2122 16.1648 13.2122 16.6162C13.2122 17.0676 13.3915 17.5005 13.7107 17.8197C14.0299 18.1389 14.4628 18.3182 14.9142 18.3182V23.4243C14.9142 23.8757 15.0935 24.3086 15.4127 24.6278C15.7319 24.947 16.1648 25.1263 16.6162 25.1263H18.3182C18.7696 25.1263 19.2026 24.947 19.5218 24.6278C19.8409 24.3086 20.0203 23.8757 20.0203 23.4243C20.0203 22.9729 19.8409 22.54 19.5218 22.2208C19.2026 21.9016 18.7696 21.7223 18.3182 21.7223V16.6162C18.3182 16.1648 18.1389 15.7319 17.8197 15.4127C17.5005 15.0935 17.0676 14.9142 16.6162 14.9142H14.9142Z" fill="black"/>
</svg>
