<svg width="36" height="36" viewBox="0 0 36 36" fill="none" xmlns="http://www.w3.org/2000/svg">
<path fill-rule="evenodd" clip-rule="evenodd" d="M16.1994 3.6001C15.8652 3.60028 15.5377 3.69349 15.2535 3.86929C14.9693 4.0451 14.7396 4.29655 14.5902 4.5955L13.287 7.2001H7.19941C6.72202 7.2001 6.26419 7.38974 5.92662 7.72731C5.58906 8.06487 5.39941 8.52271 5.39941 9.0001C5.39941 9.47749 5.58906 9.93532 5.92662 10.2729C6.26419 10.6105 6.72202 10.8001 7.19941 10.8001V28.8001C7.19941 29.7549 7.5787 30.6706 8.25383 31.3457C8.92896 32.0208 9.84463 32.4001 10.7994 32.4001H25.1994C26.1542 32.4001 27.0699 32.0208 27.745 31.3457C28.4201 30.6706 28.7994 29.7549 28.7994 28.8001V10.8001C29.2768 10.8001 29.7346 10.6105 30.0722 10.2729C30.4098 9.93532 30.5994 9.47749 30.5994 9.0001C30.5994 8.52271 30.4098 8.06487 30.0722 7.72731C29.7346 7.38974 29.2768 7.2001 28.7994 7.2001H22.7118L21.4086 4.5955C21.2592 4.29655 21.0296 4.0451 20.7454 3.86929C20.4611 3.69349 20.1336 3.60028 19.7994 3.6001H16.1994ZM12.5994 14.4001C12.5994 13.9227 12.7891 13.4649 13.1266 13.1273C13.4642 12.7897 13.922 12.6001 14.3994 12.6001C14.8768 12.6001 15.3346 12.7897 15.6722 13.1273C16.0098 13.4649 16.1994 13.9227 16.1994 14.4001V25.2001C16.1994 25.6775 16.0098 26.1353 15.6722 26.4729C15.3346 26.8105 14.8768 27.0001 14.3994 27.0001C13.922 27.0001 13.4642 26.8105 13.1266 26.4729C12.7891 26.1353 12.5994 25.6775 12.5994 25.2001V14.4001ZM21.5994 12.6001C21.122 12.6001 20.6642 12.7897 20.3266 13.1273C19.9891 13.4649 19.7994 13.9227 19.7994 14.4001V25.2001C19.7994 25.6775 19.9891 26.1353 20.3266 26.4729C20.6642 26.8105 21.122 27.0001 21.5994 27.0001C22.0768 27.0001 22.5346 26.8105 22.8722 26.4729C23.2098 26.1353 23.3994 25.6775 23.3994 25.2001V14.4001C23.3994 13.9227 23.2098 13.4649 22.8722 13.1273C22.5346 12.7897 22.0768 12.6001 21.5994 12.6001Z" fill="#F75555"/>
</svg>
