<svg width="32" height="32" viewBox="0 0 32 32" fill="none" xmlns="http://www.w3.org/2000/svg">
<circle cx="15.8418" cy="15.2598" r="8" fill="black"/>
<path fill-rule="evenodd" clip-rule="evenodd" d="M15.6328 28.6836C18.9832 28.6836 22.1964 27.3526 24.5656 24.9835C26.9347 22.6144 28.2656 19.4012 28.2656 16.0508C28.2656 12.7004 26.9347 9.48715 24.5656 7.11803C22.1964 4.74892 18.9832 3.41797 15.6328 3.41797C12.2824 3.41797 9.06918 4.74892 6.70007 7.11803C4.33095 9.48715 3 12.7004 3 16.0508C3 19.4012 4.33095 22.6144 6.70007 24.9835C9.06918 27.3526 12.2824 28.6836 15.6328 28.6836ZM10.8955 14.4717H7.7373V17.6299H10.8955V14.4717ZM23.5283 14.4717H20.3701V17.6299H23.5283V14.4717ZM14.0537 14.4717H17.2119V17.6299H14.0537V14.4717Z" fill="white"/>
</svg>
