<svg width="30" height="30" viewBox="0 0 30 30"  xmlns="http://www.w3.org/2000/svg">
<path d="M6.25 15H6.2625M15 15H15.0125M23.75 15H23.7625M7.5 15C7.5 15.3315 7.3683 15.6495 7.13388 15.8839C6.89946 16.1183 6.58152 16.25 6.25 16.25C5.91848 16.25 5.60054 16.1183 5.36612 15.8839C5.1317 15.6495 5 15.3315 5 15C5 14.6685 5.1317 14.3505 5.36612 14.1161C5.60054 13.8817 5.91848 13.75 6.25 13.75C6.58152 13.75 6.89946 13.8817 7.13388 14.1161C7.3683 14.3505 7.5 14.6685 7.5 15ZM16.25 15C16.25 15.3315 16.1183 15.6495 15.8839 15.8839C15.6495 16.1183 15.3315 16.25 15 16.25C14.6685 16.25 14.3505 16.1183 14.1161 15.8839C13.8817 15.6495 13.75 15.3315 13.75 15C13.75 14.6685 13.8817 14.3505 14.1161 14.1161C14.3505 13.8817 14.6685 13.75 15 13.75C15.3315 13.75 15.6495 13.8817 15.8839 14.1161C16.1183 14.3505 16.25 14.6685 16.25 15ZM25 15C25 15.3315 24.8683 15.6495 24.6339 15.8839C24.3995 16.1183 24.0815 16.25 23.75 16.25C23.4185 16.25 23.1005 16.1183 22.8661 15.8839C22.6317 15.6495 22.5 15.3315 22.5 15C22.5 14.6685 22.6317 14.3505 22.8661 14.1161C23.1005 13.8817 23.4185 13.75 23.75 13.75C24.0815 13.75 24.3995 13.8817 24.6339 14.1161C24.8683 14.3505 25 14.6685 25 15Z" stroke="white" stroke-width="2.5" stroke-linecap="round" stroke-linejoin="round"/>
</svg>
