<svg width="20" height="21" viewBox="0 0 20 21" fill="none" xmlns="http://www.w3.org/2000/svg">
<path fill-rule="evenodd" clip-rule="evenodd" d="M14.1162 2.7002C15.2337 2.7002 16.3087 3.14186 17.0995 3.93436C17.8912 4.7252 18.3337 5.79186 18.3337 6.90853V13.4919C18.3337 15.8169 16.442 17.7002 14.1162 17.7002H5.88366C3.55783 17.7002 1.66699 15.8169 1.66699 13.4919V6.90853C1.66699 4.58353 3.54949 2.7002 5.88366 2.7002H14.1162ZM15.442 8.1502L15.5087 8.08353C15.7078 7.84186 15.7078 7.49186 15.4995 7.2502C15.3837 7.12603 15.2245 7.0502 15.0587 7.03353C14.8837 7.02436 14.717 7.08353 14.5912 7.2002L10.8337 10.2002C10.3503 10.601 9.65783 10.601 9.16699 10.2002L5.41699 7.2002C5.15783 7.00853 4.79949 7.03353 4.58366 7.25853C4.35866 7.48353 4.33366 7.84186 4.52449 8.09186L4.63366 8.2002L8.42533 11.1585C8.89199 11.5252 9.45783 11.7252 10.0503 11.7252C10.6412 11.7252 11.217 11.5252 11.6828 11.1585L15.442 8.1502Z" fill="#949494"/>
</svg>
