<svg width="20" height="21" viewBox="0 0 20 21" fill="none" xmlns="http://www.w3.org/2000/svg">
<path fill-rule="evenodd" clip-rule="evenodd" d="M8.16941 12.9105C8.68981 13.2633 9.32404 13.4766 9.99892 13.4766C11.7878 13.4766 13.2433 12.008 13.2433 10.2031C13.2433 9.52216 13.0318 8.88223 12.6822 8.35716L11.7959 9.25142C11.9423 9.53036 12.0236 9.85853 12.0236 10.2031C12.0236 11.3271 11.1129 12.246 9.99892 12.246C9.65741 12.246 9.33217 12.1639 9.05571 12.0162L8.16941 12.9105ZM15.3574 5.65796C16.5364 6.74092 17.5365 8.20128 18.2846 9.95698C18.3496 10.1129 18.3496 10.2934 18.2846 10.441C16.5445 14.5267 13.4465 16.9716 9.99892 16.9716H9.99079C8.42148 16.9716 6.91722 16.4547 5.59184 15.5113L4.01439 17.1029C3.89243 17.2259 3.73794 17.2834 3.58344 17.2834C3.42895 17.2834 3.26633 17.2259 3.15249 17.1029C2.94921 16.8978 2.91669 16.5696 3.07931 16.3317L3.10371 16.2989L15.1297 4.16479L15.1297 4.16479C15.1459 4.14838 15.1622 4.13197 15.1703 4.11557L15.1703 4.11556C15.1866 4.09915 15.2029 4.08275 15.211 4.06634L15.9753 3.29514C16.2193 3.05722 16.6014 3.05722 16.8372 3.29514C17.0812 3.53306 17.0812 3.92687 16.8372 4.16479L15.3574 5.65796ZM6.74866 10.2063C6.74866 10.4196 6.77305 10.6329 6.80558 10.8298L3.79705 13.8654C2.98393 12.9137 2.27652 11.7651 1.71547 10.4442C1.65042 10.2966 1.65042 10.1161 1.71547 9.96018C3.45554 5.87447 6.55351 3.43781 9.99299 3.43781H10.0011C11.1639 3.43781 12.2941 3.71676 13.3349 4.24183L10.6191 6.98204C10.4239 6.94923 10.2125 6.92461 10.0011 6.92461C8.20413 6.92461 6.74866 8.39317 6.74866 10.2063Z" fill="#949494"/>
</svg>
