<svg width="20" height="20" viewBox="0 0 20 20" fill="none" xmlns="http://www.w3.org/2000/svg">
<path fill-rule="evenodd" clip-rule="evenodd" d="M8.16947 12.7108C8.68987 13.0636 9.3241 13.2769 9.99898 13.2769C11.7878 13.2769 13.2433 11.8083 13.2433 10.0034C13.2433 9.32245 13.0319 8.68252 12.6823 8.15745L11.796 9.05171C11.9423 9.33066 12.0236 9.65882 12.0236 10.0034C12.0236 11.1274 11.113 12.0463 9.99898 12.0463C9.65747 12.0463 9.33223 11.9642 9.05577 11.8165L8.16947 12.7108ZM15.3574 5.45826C16.5364 6.54121 17.5366 8.00157 18.2846 9.75728C18.3497 9.91316 18.3497 10.0936 18.2846 10.2413C16.5446 14.327 13.4466 16.7719 9.99898 16.7719H9.99085C8.42154 16.7719 6.91728 16.255 5.5919 15.3115L4.01446 16.9032C3.89249 17.0262 3.738 17.0837 3.5835 17.0837C3.42901 17.0837 3.26639 17.0262 3.15255 16.9032C2.94927 16.6981 2.91675 16.3699 3.07937 16.132L3.10377 16.0992L15.1297 3.96508L15.1297 3.96508C15.146 3.94867 15.1623 3.93226 15.1704 3.91586L15.1704 3.91585C15.1867 3.89945 15.2029 3.88304 15.2111 3.86663L15.9754 3.09543C16.2193 2.85751 16.6015 2.85751 16.8373 3.09543C17.0812 3.33336 17.0812 3.72716 16.8373 3.96508L15.3574 5.45826ZM6.74872 10.0066C6.74872 10.2199 6.77311 10.4332 6.80564 10.6301L3.79711 13.6657C2.98399 12.714 2.27658 11.5654 1.71553 10.2445C1.65049 10.0968 1.65049 9.91636 1.71553 9.76047C3.4556 5.67476 6.55357 3.23811 9.99305 3.23811H10.0012C11.1639 3.23811 12.2942 3.51705 13.335 4.04212L10.6191 6.78234C10.424 6.74952 10.2126 6.72491 10.0012 6.72491C8.20419 6.72491 6.74872 8.19347 6.74872 10.0066Z" fill="#BDBDBD"/>
</svg>
