<svg width="9" height="15" viewBox="0 0 9 15" fill="none" xmlns="http://www.w3.org/2000/svg">
<path d="M8.6103 7.50029C8.61104 7.62593 8.58657 7.75048 8.53828 7.8668C8.49 7.98311 8.41886 8.0889 8.32894 8.17811L2.50774 13.9061C2.32505 14.0859 2.07726 14.1869 1.8189 14.1869C1.56053 14.1869 1.31275 14.0859 1.13005 13.9061C0.947362 13.7264 0.844727 13.4825 0.844727 13.2283C0.844727 12.9741 0.947362 12.7303 1.13005 12.5505L6.27212 7.50029L1.13976 2.45009C0.980812 2.26746 0.897756 2.03254 0.907188 1.79227C0.916619 1.552 1.01784 1.32409 1.19063 1.15406C1.36342 0.984043 1.59504 0.884441 1.83922 0.875161C2.0834 0.86588 2.32214 0.947604 2.50774 1.104L8.32894 6.83202C8.50818 7.00984 8.60923 7.24985 8.6103 7.50029Z" fill="#949494"/>
</svg>
