<svg width="25" height="25" viewBox="0 0 25 25" fill="none" xmlns="http://www.w3.org/2000/svg">
<g clip-path="url(#clip0_3425_809)">
<path d="M12.5 0.600098C5.8724 0.600098 0.5 5.9725 0.5 12.6001C0.5 19.2277 5.8724 24.6001 12.5 24.6001C19.1276 24.6001 24.5 19.2277 24.5 12.6001C24.5 5.9725 19.1276 0.600098 12.5 0.600098Z" fill="url(#paint0_linear_3425_809)"/>
<path d="M14.2285 17.4579H17.4851L17.9966 14.1497H14.2285V12.3415C14.2285 10.9674 14.6778 9.74871 15.9632 9.74871H18.0287V6.86209C17.6657 6.81301 16.8981 6.70605 15.4479 6.70605C12.4191 6.70605 10.6435 8.3054 10.6435 11.9495V14.1504H7.52979V17.4585H10.6429V26.5513C11.2595 26.6431 11.8843 26.7061 12.5254 26.7061C13.1048 26.7061 13.6705 26.6532 14.2285 26.5777V17.4579Z" fill="white"/>
</g>
<defs>
<linearGradient id="paint0_linear_3425_809" x1="4.0958" y1="4.1959" x2="22.469" y2="22.5691" gradientUnits="userSpaceOnUse">
<stop stop-color="#2AA4F4"/>
<stop offset="1" stop-color="#007AD9"/>
</linearGradient>
<clipPath id="clip0_3425_809">
<rect width="24" height="24" fill="white" transform="translate(0.5 0.600098)"/>
</clipPath>
</defs>
</svg>
