<svg width="24" height="25" viewBox="0 0 24 25" fill="none" xmlns="http://www.w3.org/2000/svg">
<path fill-rule="evenodd" clip-rule="evenodd" d="M11.7499 5.40015C11.6589 5.40015 11.4349 5.42515 11.3159 5.66315L9.48992 9.31415C9.20092 9.89115 8.64392 10.2921 7.99992 10.3841L3.91192 10.9731C3.64192 11.0121 3.54992 11.2121 3.52192 11.2961C3.49692 11.3771 3.45692 11.5831 3.64292 11.7611L6.59892 14.6011C7.06992 15.0541 7.28392 15.7071 7.17192 16.3461L6.47592 20.3561C6.43292 20.6071 6.58992 20.7531 6.65992 20.8031C6.73392 20.8591 6.93192 20.9701 7.17692 20.8421L10.8319 18.9471C11.4079 18.6501 12.0939 18.6501 12.6679 18.9471L16.3219 20.8411C16.5679 20.9681 16.7659 20.8571 16.8409 20.8031C16.9109 20.7531 17.0679 20.6071 17.0249 20.3561L16.3269 16.3461C16.2149 15.7071 16.4289 15.0541 16.8999 14.6011L19.8559 11.7611C20.0429 11.5831 20.0029 11.3761 19.9769 11.2961C19.9499 11.2121 19.8579 11.0121 19.5879 10.9731L15.4999 10.3841C14.8569 10.2921 14.2999 9.89115 14.0109 9.31315L12.1829 5.66315C12.0649 5.42515 11.8409 5.40015 11.7499 5.40015ZM6.94692 22.4001C6.53392 22.4001 6.12392 22.2701 5.77292 22.0141C5.16692 21.5701 4.86992 20.8371 4.99892 20.0991L5.69492 16.0891C5.72092 15.9401 5.66992 15.7891 5.55992 15.6831L2.60392 12.8431C2.05992 12.3221 1.86492 11.5521 2.09492 10.8371C2.32692 10.1141 2.94092 9.59715 3.69792 9.48915L7.78592 8.90015C7.94392 8.87815 8.07992 8.78115 8.14792 8.64315L9.97492 4.99115C10.3119 4.31815 10.9919 3.90015 11.7499 3.90015C12.5079 3.90015 13.1879 4.31815 13.5249 4.99115L15.3529 8.64215C15.4219 8.78115 15.5569 8.87815 15.7139 8.90015L19.8019 9.48915C20.5589 9.59715 21.1729 10.1141 21.4049 10.8371C21.6349 11.5521 21.4389 12.3221 20.8949 12.8431L17.9389 15.6831C17.8289 15.7891 17.7789 15.9401 17.8049 16.0881L18.5019 20.0991C18.6299 20.8381 18.3329 21.5711 17.7259 22.0141C17.1109 22.4651 16.3099 22.5261 15.6309 22.1721L11.9779 20.2791C11.8349 20.2051 11.6639 20.2051 11.5209 20.2791L7.86792 22.1731C7.57592 22.3251 7.26092 22.4001 6.94692 22.4001Z" fill="#BDBDBD"/>
</svg>
