<svg width="19" height="19" viewBox="0 0 19 19" fill="none" xmlns="http://www.w3.org/2000/svg">
<path d="M11.1056 7.36366H15.4899C15.8036 7.36367 16.1121 7.44386 16.386 7.59661C16.66 7.74936 16.8905 7.9696 17.0554 8.23643C17.2203 8.50326 17.3144 8.80782 17.3285 9.12119C17.3427 9.43457 17.2765 9.74637 17.1363 10.027L13.9153 16.469C13.7624 16.775 13.5272 17.0323 13.2363 17.2121C12.9453 17.3919 12.61 17.487 12.2679 17.4868H8.57113C8.42112 17.4868 8.27112 17.4684 8.12479 17.4316L4.66358 16.5666M11.1056 7.36366V2.76221C11.1056 2.27406 10.9117 1.8059 10.5665 1.46072C10.2213 1.11555 9.75318 0.921631 9.26503 0.921631H9.1776C8.71746 0.921631 8.34474 1.29435 8.34474 1.75449C8.34474 2.41158 8.15056 3.05394 7.7852 3.60059L4.66358 8.28395V16.5666M11.1056 7.36366H9.26503ZM4.66358 16.5666H2.823C2.33485 16.5666 1.86669 16.3726 1.52152 16.0275C1.17634 15.6823 0.982422 15.2141 0.982422 14.726V9.20424C0.982422 8.71609 1.17634 8.24793 1.52152 7.90275C1.86669 7.55758 2.33485 7.36366 2.823 7.36366H5.12373" fill="white"/>
<path d="M11.1056 7.36366H15.4899C15.8036 7.36367 16.1121 7.44386 16.386 7.59661C16.66 7.74936 16.8905 7.9696 17.0554 8.23643C17.2203 8.50326 17.3144 8.80782 17.3285 9.12119C17.3427 9.43457 17.2765 9.74637 17.1363 10.027L13.9153 16.469C13.7624 16.775 13.5272 17.0323 13.2363 17.2121C12.9453 17.3919 12.61 17.487 12.2679 17.4868H8.57113C8.42112 17.4868 8.27112 17.4684 8.12479 17.4316L4.66358 16.5666M11.1056 7.36366V2.76221C11.1056 2.27406 10.9117 1.8059 10.5665 1.46072C10.2213 1.11555 9.75318 0.921631 9.26503 0.921631H9.1776C8.71746 0.921631 8.34474 1.29435 8.34474 1.75449C8.34474 2.41158 8.15056 3.05394 7.7852 3.60059L4.66358 8.28395V16.5666M11.1056 7.36366H9.26503M4.66358 16.5666H2.823C2.33485 16.5666 1.86669 16.3726 1.52152 16.0275C1.17634 15.6823 0.982422 15.2141 0.982422 14.726V9.20424C0.982422 8.71609 1.17634 8.24793 1.52152 7.90275C1.86669 7.55758 2.33485 7.36366 2.823 7.36366H5.12373" stroke="#212121" stroke-width="1.38043" stroke-linecap="round" stroke-linejoin="round"/>
</svg>
