<svg width="20" height="20" viewBox="0 0 20 20" fill="none" xmlns="http://www.w3.org/2000/svg">
<path d="M16 4.99991C16.2652 4.99991 16.5196 4.89456 16.7071 4.70702C16.8946 4.51948 17 4.26513 17 3.99991C17 3.7347 16.8946 3.48034 16.7071 3.29281C16.5196 3.10527 16.2652 2.99991 16 2.99991L8.732 2.99991C8.55646 2.6959 8.30398 2.44344 7.99996 2.26792C7.69593 2.0924 7.35106 2 7 2C6.64894 2 6.30407 2.0924 6.00004 2.26792C5.69602 2.44344 5.44354 2.6959 5.268 2.99991L4 2.99991C3.73478 2.99991 3.48043 3.10527 3.29289 3.2928C3.10536 3.48034 3 3.73469 3 3.99991C3 4.26513 3.10536 4.51948 3.29289 4.70702C3.48043 4.89455 3.73478 4.99991 4 4.99991L5.268 4.99991C5.44354 5.30393 5.69602 5.55638 6.00004 5.7319C6.30407 5.90742 6.64894 5.99982 7 5.99982C7.35106 5.99982 7.69593 5.90742 7.99996 5.7319C8.30398 5.55638 8.55646 5.30393 8.732 4.99991L16 4.99991ZM16 10.9999C16.2652 10.9999 16.5196 10.8946 16.7071 10.707C16.8946 10.5195 17 10.2651 17 9.99991C17 9.7347 16.8946 9.48034 16.7071 9.29281C16.5196 9.10527 16.2652 8.99991 16 8.99991L14.732 8.99991C14.5565 8.6959 14.304 8.44344 14 8.26792C13.6959 8.0924 13.3511 8 13 8C12.6489 8 12.3041 8.0924 12 8.26792C11.696 8.44344 11.4435 8.6959 11.268 8.99991L4 8.99991C3.73478 8.99991 3.48043 9.10527 3.29289 9.29281C3.10536 9.48034 3 9.7347 3 9.99991C3 10.2651 3.10536 10.5195 3.29289 10.707C3.48043 10.8946 3.73478 10.9999 4 10.9999L11.268 10.9999C11.4435 11.3039 11.696 11.5564 12 11.7319C12.3041 11.9074 12.6489 11.9998 13 11.9998C13.3511 11.9998 13.6959 11.9074 14 11.7319C14.304 11.5564 14.5565 11.3039 14.732 10.9999L16 10.9999ZM17 15.9999C17 16.2651 16.8946 16.5195 16.7071 16.707C16.5196 16.8946 16.2652 16.9999 16 16.9999L8.732 16.9999C8.55646 17.3039 8.30398 17.5564 7.99996 17.7319C7.69593 17.9074 7.35106 17.9998 7 17.9998C6.64894 17.9998 6.30407 17.9074 6.00004 17.7319C5.69602 17.5564 5.44354 17.3039 5.268 16.9999L4 16.9999C3.73478 16.9999 3.48043 16.8946 3.29289 16.707C3.10536 16.5195 3 16.2651 3 15.9999C3 15.7347 3.10536 15.4803 3.29289 15.2928C3.48043 15.1053 3.73478 14.9999 4 14.9999L5.268 14.9999C5.44354 14.6959 5.69602 14.4434 6.00004 14.2679C6.30407 14.0924 6.64894 14 7 14C7.35106 14 7.69593 14.0924 7.99996 14.2679C8.30398 14.4434 8.55646 14.6959 8.732 14.9999L16 14.9999C16.2652 14.9999 16.5196 15.1053 16.7071 15.2928C16.8946 15.4803 17 15.7347 17 15.9999Z" fill="white"/>
</svg>
