<svg width="24" height="25" viewBox="0 0 24 25" fill="none" xmlns="http://www.w3.org/2000/svg">
<g clip-path="url(#clip0_3425_2087)">
<path d="M23.5078 12.8248C23.5078 11.8415 23.4295 11.124 23.2598 10.3799H12.2295V14.8179H18.7041C18.5736 15.9208 17.8687 17.5817 16.3022 18.6978L16.2802 18.8464L19.7678 21.5966L20.0095 21.6211C22.2285 19.535 23.5078 16.4655 23.5078 12.8248Z" fill="#4285F4"/>
<path d="M12.2295 24.5174C15.4015 24.5174 18.0644 23.4544 20.0095 21.6208L16.3022 18.6974C15.3101 19.4017 13.9786 19.8933 12.2295 19.8933C9.12274 19.8933 6.48592 17.8072 5.54596 14.9238L5.40819 14.9357L1.78174 17.7926L1.73431 17.9268C3.66624 21.8333 7.63456 24.5174 12.2295 24.5174Z" fill="#34A853"/>
<path d="M5.54609 14.9239C5.29808 14.1798 5.15454 13.3825 5.15454 12.5587C5.15454 11.7348 5.29808 10.9376 5.53304 10.1935L5.52647 10.035L1.85458 7.13232L1.73444 7.19049C0.938206 8.81159 0.481323 10.632 0.481323 12.5587C0.481323 14.4854 0.938206 16.3057 1.73444 17.9268L5.54609 14.9239Z" fill="#FBBC05"/>
<path d="M12.2295 5.22413C14.4355 5.22413 15.9236 6.19411 16.7721 7.00471L20.0877 3.70938C18.0514 1.78269 15.4015 0.600098 12.2295 0.600098C7.63455 0.600098 3.66623 3.28416 1.73431 7.19066L5.53291 10.1937C6.48591 7.3103 9.12273 5.22413 12.2295 5.22413Z" fill="#EB4335"/>
</g>
<defs>
<clipPath id="clip0_3425_2087">
<rect width="23.04" height="24" fill="white" transform="translate(0.47998 0.600098)"/>
</clipPath>
</defs>
</svg>
