<svg width="23" height="20" viewBox="0 0 23 20" fill="none" xmlns="http://www.w3.org/2000/svg">
<g clip-path="url(#clip0_2765_18944)">
<path d="M10.925 0C11.73 0.173913 12.535 0.405797 13.2825 0.637681C13.7425 0.753623 14.145 0.985507 14.605 1.21739C14.3175 1.85507 14.0875 2.43478 13.8575 3.07246C11.6725 1.91304 9.4875 1.68116 7.1875 2.49275C5.52 3.07246 4.1975 4.17391 3.22 5.68116C1.3225 8.57971 1.5525 12.4058 3.7375 15.1304C5.865 17.7971 9.6025 18.7826 12.8225 17.5072C14.6625 16.7536 16.1 15.4783 17.02 13.6232C17.94 11.8261 18.055 9.91304 17.595 7.94203C18.2275 7.82609 18.86 7.71014 19.4925 7.53623C19.78 8.57971 19.895 9.68116 19.78 10.7246C19.32 15.5942 15.985 19.1884 11.155 19.8841C11.04 19.8841 10.9825 19.942 10.8675 20C10.235 20 9.545 20 8.9125 20C8.7975 19.942 8.6825 19.942 8.5675 19.8841C4.6575 19.2464 1.955 17.0435 0.575 13.3333C0.2875 12.5797 0.1725 11.7681 0 11.0145C0 10.3768 0 9.73913 0 9.10145C0.0575 8.92754 0.0575 8.81159 0.115 8.63768C0.69 4.57971 3.565 1.33333 7.475 0.347826C7.935 0.231884 8.4525 0.115942 8.9125 0.057971C9.6025 0 10.235 0 10.925 0Z" fill="#4ADE80"/>
<path d="M9.37228 16.3477C7.53228 14.0869 5.74979 11.884 3.96729 9.68108C4.82979 8.6376 5.69228 7.65209 6.55478 6.60861C7.41728 7.88397 8.27979 9.10136 9.19979 10.3188C13.0523 5.85499 17.3648 2.08687 22.9998 0.173828C16.5598 3.94194 12.4198 9.6231 9.37228 16.3477Z" fill="#4ADE80"/>
</g>
<defs>
<clipPath id="clip0_2765_18944">
<rect width="23" height="20" fill="white"/>
</clipPath>
</defs>
</svg>
