<svg width="24" height="24" viewBox="0 0 24 24" fill="none" xmlns="http://www.w3.org/2000/svg">
<path fill-rule="evenodd" clip-rule="evenodd" d="M4.7999 3.6001C4.16338 3.6001 3.55293 3.85295 3.10285 4.30304C2.65276 4.75313 2.3999 5.36358 2.3999 6.0001V18.0001C2.3999 18.6366 2.65276 19.2471 3.10285 19.6972C3.55293 20.1472 4.16338 20.4001 4.7999 20.4001H19.1999C19.8364 20.4001 20.4469 20.1472 20.897 19.6972C21.347 19.2471 21.5999 18.6366 21.5999 18.0001V6.0001C21.5999 5.36358 21.347 4.75313 20.897 4.30304C20.4469 3.85295 19.8364 3.6001 19.1999 3.6001H4.7999ZM19.1999 18.0001H4.7999L9.5999 8.4001L13.1999 15.6001L15.5999 10.8001L19.1999 18.0001Z" fill="#2976BA"/>
</svg>
