<svg width="19" height="19" viewBox="0 0 19 19" fill="none" xmlns="http://www.w3.org/2000/svg">
<g clip-path="url(#clip0_2897_22111)">
<path d="M9.64844 1.28027C9.0517 1.28027 8.4794 1.51733 8.05745 1.93928C7.63549 2.36124 7.39844 2.93354 7.39844 3.53027V9.53027C7.39844 10.127 7.63549 10.6993 8.05745 11.1213C8.4794 11.5432 9.0517 11.7803 9.64844 11.7803C10.2452 11.7803 10.8175 11.5432 11.2394 11.1213C11.6614 10.6993 11.8984 10.127 11.8984 9.53027V3.53027C11.8984 2.93354 11.6614 2.36124 11.2394 1.93928C10.8175 1.51733 10.2452 1.28027 9.64844 1.28027V1.28027Z" stroke="#212121" stroke-width="2" stroke-linecap="round" stroke-linejoin="round"/>
<path d="M14.8984 8.03027V9.53027C14.8984 10.9227 14.3453 12.258 13.3607 13.2426C12.3762 14.2271 11.0408 14.7803 9.64844 14.7803C8.25605 14.7803 6.92069 14.2271 5.93613 13.2426C4.95156 12.258 4.39844 10.9227 4.39844 9.53027V8.03027" stroke="#212121" stroke-width="2" stroke-linecap="round" stroke-linejoin="round"/>
<path d="M9.64844 14.7803V17.7803" stroke="#212121" stroke-width="2" stroke-linecap="round" stroke-linejoin="round"/>
<path d="M6.64844 17.7803H12.6484" stroke="#212121" stroke-width="2" stroke-linecap="round" stroke-linejoin="round"/>
</g>
<defs>
<clipPath id="clip0_2897_22111">
<rect width="18" height="18" fill="white" transform="translate(0.648438 0.530273)"/>
</clipPath>
</defs>
</svg>
