<svg width="24" height="24" viewBox="0 0 24 24" fill="none" xmlns="http://www.w3.org/2000/svg">
<path d="M12.0195 2C17.6995 2 22 6.65736 22 11.9854C21.9998 18.1644 16.9599 22 12 22C10.3601 22 8.54005 21.5595 7.08008 20.6982C6.57008 20.3878 6.13984 20.1576 5.58984 20.3379L3.57031 20.9385C3.06031 21.0987 2.6 20.698 2.75 20.1572L3.41992 17.9141C3.52992 17.6036 3.50961 17.2731 3.34961 17.0127C2.48962 15.4303 2 13.6972 2 12.0146C2.0002 6.74704 6.20991 2.00026 12.0195 2ZM11.9805 10.7432C11.2805 10.7331 10.7002 11.3146 10.7002 12.0156C10.7004 12.7265 11.2706 13.2976 11.9805 13.3076C12.6902 13.3074 13.2596 12.7262 13.2598 12.0254C13.2598 11.3145 12.6903 10.7434 11.9805 10.7432ZM16.5898 10.7432C15.88 10.7434 15.3105 11.3144 15.3105 12.0254C15.3107 12.7262 15.8801 13.3074 16.5898 13.3076C17.2997 13.3075 17.87 12.7263 17.8701 12.0254C17.8701 11.3144 17.2998 10.7433 16.5898 10.7432ZM7.37012 10.7432C6.66012 10.7432 6.08984 11.3143 6.08984 12.0254C6.09004 12.7263 6.67023 13.3066 7.37012 13.3066C8.07994 13.2966 8.6502 12.7262 8.65039 12.0254C8.65039 11.3144 8.08006 10.7432 7.37012 10.7432Z" fill="#2976BA"/>
</svg>
