<svg width="28" height="28" viewBox="0 0 28 28" fill="none" xmlns="http://www.w3.org/2000/svg">
<path d="M24.3804 3.62058C23.8553 3.09566 23.1432 2.80078 22.4008 2.80078C21.6583 2.80078 20.9463 3.09566 20.4212 3.62058L9.80078 14.241V18.2002H13.76L24.3804 7.57978C24.9053 7.05471 25.2002 6.34264 25.2002 5.60018C25.2002 4.85772 24.9053 4.14566 24.3804 3.62058Z" fill="#212121"/>
<path fill-rule="evenodd" clip-rule="evenodd" d="M2.80078 8.40156C2.80078 7.65896 3.09578 6.94677 3.62088 6.42166C4.14598 5.89656 4.85817 5.60156 5.60078 5.60156H11.2008C11.5721 5.60156 11.9282 5.74906 12.1907 6.01161C12.4533 6.27416 12.6008 6.63026 12.6008 7.00156C12.6008 7.37287 12.4533 7.72896 12.1907 7.99151C11.9282 8.25406 11.5721 8.40156 11.2008 8.40156H5.60078V22.4016H19.6008V16.8016C19.6008 16.4303 19.7483 16.0742 20.0108 15.8116C20.2734 15.5491 20.6295 15.4016 21.0008 15.4016C21.3721 15.4016 21.7282 15.5491 21.9907 15.8116C22.2533 16.0742 22.4008 16.4303 22.4008 16.8016V22.4016C22.4008 23.1442 22.1058 23.8564 21.5807 24.3815C21.0556 24.9066 20.3434 25.2016 19.6008 25.2016H5.60078C4.85817 25.2016 4.14598 24.9066 3.62088 24.3815C3.09578 23.8564 2.80078 23.1442 2.80078 22.4016V8.40156Z" fill="#212121"/>
</svg>
