<svg width="33" height="33" viewBox="0 0 33 33" fill="none" xmlns="http://www.w3.org/2000/svg">
<path fill-rule="evenodd" clip-rule="evenodd" d="M7.08344 7.08356C7.39286 6.77423 7.81247 6.60046 8.24999 6.60046C8.68751 6.60046 9.10712 6.77423 9.41654 7.08356L16.5 14.167L23.5834 7.08356C23.7356 6.92597 23.9177 6.80027 24.119 6.71379C24.3203 6.62732 24.5368 6.5818 24.7559 6.5799C24.975 6.57799 25.1923 6.61974 25.3951 6.7027C25.5978 6.78567 25.7821 6.90818 25.937 7.06311C26.0919 7.21803 26.2144 7.40226 26.2974 7.60504C26.3804 7.80781 26.4221 8.02509 26.4202 8.24417C26.4183 8.46326 26.3728 8.67977 26.2863 8.88108C26.1998 9.08238 26.0741 9.26445 25.9165 9.41666L18.8331 16.5001L25.9165 23.5836C26.2171 23.8948 26.3834 24.3115 26.3797 24.7442C26.3759 25.1768 26.2024 25.5906 25.8964 25.8966C25.5905 26.2025 25.1767 26.376 24.7441 26.3798C24.3114 26.3835 23.8946 26.2172 23.5834 25.9167L16.5 18.8332L9.41654 25.9167C9.10535 26.2172 8.68855 26.3835 8.25593 26.3798C7.8233 26.376 7.40946 26.2025 7.10354 25.8966C6.79762 25.5906 6.62409 25.1768 6.62033 24.7442C6.61657 24.3115 6.78288 23.8948 7.08344 23.5836L14.1669 16.5001L7.08344 9.41666C6.77411 9.10724 6.60034 8.68763 6.60034 8.25011C6.60034 7.81259 6.77411 7.39298 7.08344 7.08356Z" fill="black"/>
</svg>
