<svg width="17" height="17" viewBox="0 0 17 17" fill="none" xmlns="http://www.w3.org/2000/svg">
<g opacity="0.5">
<path d="M14.875 14.875L10.625 10.625M12.0417 7.08333C12.0417 7.73447 11.9134 8.37923 11.6642 8.98081C11.4151 9.58238 11.0498 10.129 10.5894 10.5894C10.129 11.0498 9.58238 11.4151 8.98081 11.6642C8.37923 11.9134 7.73447 12.0417 7.08333 12.0417C6.4322 12.0417 5.78743 11.9134 5.18586 11.6642C4.58429 11.4151 4.03769 11.0498 3.57726 10.5894C3.11684 10.129 2.75161 9.58238 2.50243 8.98081C2.25325 8.37923 2.125 7.73447 2.125 7.08333C2.125 5.7683 2.64739 4.50713 3.57726 3.57726C4.50713 2.64739 5.7683 2.125 7.08333 2.125C8.39836 2.125 9.65954 2.64739 10.5894 3.57726C11.5193 4.50713 12.0417 5.7683 12.0417 7.08333Z" stroke="#797979" stroke-width="1.41667" stroke-linecap="round" stroke-linejoin="round"/>
</g>
</svg>
