<svg width="25" height="24" viewBox="0 0 25 24" fill="none" xmlns="http://www.w3.org/2000/svg">
<path d="M6.07953 4.20646C8.98385 2.20131 10.436 1.19874 12.0944 1.14093C12.2275 1.13629 12.3607 1.13629 12.4937 1.14093C14.1521 1.19874 15.6043 2.20131 18.5086 4.20646C21.4129 6.2116 22.8651 7.21417 23.4354 8.69511C23.4812 8.81391 23.5223 8.93427 23.5588 9.05593C24.0134 10.5726 23.4588 12.1948 22.3494 15.4392C21.2401 18.6836 20.6854 20.3058 19.3794 21.2789C19.2747 21.3569 19.1669 21.4313 19.0564 21.5019C17.679 22.3814 15.884 22.3814 12.2941 22.3814C8.70414 22.3814 6.90917 22.3814 5.53171 21.5019C5.42121 21.4313 5.31347 21.3569 5.20871 21.2789C3.90276 20.3058 3.34809 18.6836 2.23874 15.4392C1.12939 12.1948 0.574712 10.5726 1.02933 9.05593C1.0658 8.93427 1.10696 8.81391 1.15271 8.69511C1.72306 7.21417 3.17521 6.2116 6.07953 4.20646Z" fill="#1A73E8"/>
<path d="M2.23874 15.4392L2.98027 15.1856L2.23874 15.4392ZM1.02933 9.05593L1.78002 9.28095L1.02933 9.05593ZM6.07953 4.20646L5.63428 3.56154L6.07953 4.20646ZM1.15271 8.69511L1.88403 8.97676L1.15271 8.69511ZM5.53171 21.5019L5.10995 22.1624L5.53171 21.5019ZM5.20871 21.2789L4.74046 21.9073L5.20871 21.2789ZM22.3494 15.4392L21.6079 15.1856L22.3494 15.4392ZM19.3794 21.2789L19.8477 21.9073L19.3794 21.2789ZM19.0564 21.5019L19.4782 22.1624L19.0564 21.5019ZM18.5086 4.20646L18.9539 3.56155L18.5086 4.20646ZM23.4354 8.69511L22.7041 8.97676L23.4354 8.69511ZM23.5588 9.05593L22.8081 9.28095L23.5588 9.05593ZM12.4937 1.14093L12.4664 1.92414L12.4937 1.14093ZM12.0944 1.14093L12.1217 1.92414L12.0944 1.14093ZM10.116 16.7253C9.68314 16.7253 9.33227 17.0761 9.33227 17.509C9.33227 17.9418 9.68314 18.2926 10.116 18.2926V16.7253ZM14.4722 18.2926C14.905 18.2926 15.2559 17.9418 15.2559 17.509C15.2559 17.0761 14.905 16.7253 14.4722 16.7253V18.2926ZM2.23874 15.4392L2.98027 15.1856C2.41981 13.5465 2.02165 12.3785 1.81287 11.431C1.60831 10.5027 1.60507 9.86462 1.78002 9.28095L1.02933 9.05593L0.27865 8.83092C-0.00101864 9.76392 0.0457663 10.6953 0.282223 11.7683C0.514461 12.8222 0.948316 14.0875 1.4972 15.6927L2.23874 15.4392ZM6.07953 4.20646L5.63428 3.56154C4.1961 4.55447 3.06606 5.33339 2.22961 6.05343C1.38053 6.78434 0.770899 7.50593 0.421387 8.41346L1.15271 8.69511L1.88403 8.97676C2.10487 8.40336 2.50648 7.8832 3.25216 7.2413C4.01045 6.58853 5.05865 5.86359 6.52478 4.85137L6.07953 4.20646ZM1.02933 9.05593L1.78002 9.28095C1.81075 9.17845 1.84544 9.07698 1.88403 8.97676L1.15271 8.69511L0.421387 8.41346C0.368478 8.55084 0.320863 8.69009 0.27865 8.83092L1.02933 9.05593ZM12.2941 22.3814V21.5977C10.4829 21.5977 9.1837 21.5968 8.16334 21.4919C7.15921 21.3887 6.50034 21.1905 5.95346 20.8413L5.53171 21.5019L5.10995 22.1624C5.94054 22.6927 6.86788 22.9344 8.00308 23.051C9.12205 23.166 10.5153 23.1651 12.2941 23.1651V22.3814ZM2.23874 15.4392L1.4972 15.6927C2.0462 17.2983 2.47771 18.5638 2.94139 19.5455C3.41392 20.5459 3.94873 21.3173 4.74046 21.9073L5.20871 21.2789L5.67695 20.6504C5.16274 20.2673 4.76724 19.7411 4.35861 18.8761C3.94113 17.9922 3.54063 16.8245 2.98027 15.1856L2.23874 15.4392ZM5.53171 21.5019L5.95346 20.8413C5.85878 20.7809 5.76655 20.7172 5.67695 20.6504L5.20871 21.2789L4.74046 21.9073C4.86038 21.9966 4.98363 22.0817 5.10995 22.1624L5.53171 21.5019ZM22.3494 15.4392L21.6079 15.1856C21.0475 16.8245 20.647 17.9922 20.2295 18.8761C19.8209 19.7411 19.4254 20.2673 18.9112 20.6504L19.3794 21.2789L19.8477 21.9073C20.6394 21.3173 21.1742 20.5459 21.6467 19.5455C22.1104 18.5638 22.5419 17.2983 23.0909 15.6927L22.3494 15.4392ZM12.2941 22.3814V23.1651C14.0728 23.1651 15.4661 23.166 16.5851 23.051C17.7203 22.9344 18.6476 22.6927 19.4782 22.1624L19.0564 21.5019L18.6347 20.8413C18.0878 21.1905 17.4289 21.3887 16.4248 21.4919C15.4044 21.5968 14.1052 21.5977 12.2941 21.5977V22.3814ZM19.3794 21.2789L18.9112 20.6504C18.8216 20.7172 18.7294 20.7809 18.6347 20.8413L19.0564 21.5019L19.4782 22.1624C19.6045 22.0817 19.7278 21.9966 19.8477 21.9073L19.3794 21.2789ZM18.5086 4.20646L18.0634 4.85137C19.5295 5.86359 20.5777 6.58853 21.336 7.2413C22.0817 7.8832 22.4833 8.40336 22.7041 8.97676L23.4354 8.69511L24.1668 8.41346C23.8172 7.50593 23.2076 6.78434 22.3585 6.05343C21.5221 5.33339 20.392 4.55447 18.9539 3.56155L18.5086 4.20646ZM22.3494 15.4392L23.0909 15.6927C23.6398 14.0875 24.0737 12.8222 24.3059 11.7683C24.5424 10.6953 24.5892 9.76392 24.3095 8.83092L23.5588 9.05593L22.8081 9.28095C22.9831 9.86462 22.9798 10.5027 22.7753 11.431C22.5665 12.3785 22.1683 13.5465 21.6079 15.1856L22.3494 15.4392ZM23.4354 8.69511L22.7041 8.97676C22.7427 9.07698 22.7774 9.17844 22.8081 9.28095L23.5588 9.05593L24.3095 8.83092C24.2673 8.69009 24.2197 8.55085 24.1668 8.41346L23.4354 8.69511ZM18.5086 4.20646L18.9539 3.56155C17.5153 2.56836 16.387 1.78816 15.4089 1.25526C14.4144 0.713483 13.5151 0.392376 12.521 0.357721L12.4937 1.14093L12.4664 1.92414C13.1307 1.9473 13.7867 2.15638 14.659 2.63163C15.5476 3.11575 16.5976 3.83941 18.0634 4.85137L18.5086 4.20646ZM6.07953 4.20646L6.52478 4.85137C7.99054 3.83941 9.0405 3.11575 9.92912 2.63163C10.8014 2.15638 11.4574 1.9473 12.1217 1.92414L12.0944 1.14093L12.0671 0.357721C11.073 0.392376 10.1737 0.713483 9.17927 1.25526C8.20113 1.78816 7.07285 2.56836 5.63428 3.56154L6.07953 4.20646ZM12.4937 1.14093L12.521 0.357721C12.3698 0.352449 12.2184 0.352449 12.0671 0.357721L12.0944 1.14093L12.1217 1.92414C12.2366 1.92013 12.3516 1.92013 12.4664 1.92414L12.4937 1.14093ZM10.116 17.509V18.2926H14.4722V17.509V16.7253H10.116V17.509Z" fill="white"/>
</svg>
