<svg width="19" height="19" viewBox="0 0 19 19" fill="none" xmlns="http://www.w3.org/2000/svg">
<path d="M11.1056 7.3639H15.4899C15.8036 7.36391 16.1121 7.4441 16.386 7.59685C16.66 7.7496 16.8905 7.96984 17.0554 8.23667C17.2203 8.5035 17.3144 8.80806 17.3285 9.12144C17.3427 9.43482 17.2765 9.74661 17.1363 10.0272L13.9153 16.4693C13.7624 16.7752 13.5272 17.0325 13.2363 17.2123C12.9453 17.3921 12.61 17.4873 12.2679 17.4871H8.57113C8.42112 17.4871 8.27112 17.4687 8.12479 17.4319L4.66358 16.5668M11.1056 7.3639V2.76245C11.1056 2.2743 10.9117 1.80614 10.5665 1.46097C10.2213 1.11579 9.75318 0.921875 9.26503 0.921875H9.1776C8.71746 0.921875 8.34474 1.29459 8.34474 1.75474C8.34474 2.41182 8.15056 3.05419 7.7852 3.60084L4.66358 8.28419V16.5668M11.1056 7.3639H9.26503ZM4.66358 16.5668H2.823C2.33485 16.5668 1.86669 16.3729 1.52152 16.0277C1.17634 15.6825 0.982422 15.2144 0.982422 14.7262V9.20448C0.982422 8.71633 1.17634 8.24817 1.52152 7.903C1.86669 7.55782 2.33485 7.3639 2.823 7.3639H5.12373" fill="white"/>
<path d="M11.1056 7.3639H15.4899C15.8036 7.36391 16.1121 7.4441 16.386 7.59685C16.66 7.7496 16.8905 7.96984 17.0554 8.23667C17.2203 8.5035 17.3144 8.80806 17.3285 9.12144C17.3427 9.43482 17.2765 9.74661 17.1363 10.0272L13.9153 16.4693C13.7624 16.7752 13.5272 17.0325 13.2363 17.2123C12.9453 17.3921 12.61 17.4873 12.2679 17.4871H8.57113C8.42112 17.4871 8.27112 17.4687 8.12479 17.4319L4.66358 16.5668M11.1056 7.3639V2.76245C11.1056 2.2743 10.9117 1.80614 10.5665 1.46097C10.2213 1.11579 9.75318 0.921875 9.26503 0.921875H9.1776C8.71746 0.921875 8.34474 1.29459 8.34474 1.75474C8.34474 2.41182 8.15056 3.05419 7.7852 3.60084L4.66358 8.28419V16.5668M11.1056 7.3639H9.26503M4.66358 16.5668H2.823C2.33485 16.5668 1.86669 16.3729 1.52152 16.0277C1.17634 15.6825 0.982422 15.2144 0.982422 14.7262V9.20448C0.982422 8.71633 1.17634 8.24817 1.52152 7.903C1.86669 7.55782 2.33485 7.3639 2.823 7.3639H5.12373" stroke="#212121" stroke-width="1.38043" stroke-linecap="round" stroke-linejoin="round"/>
</svg>
