<svg width="24" height="24" viewBox="0 0 24 24" fill="none" xmlns="http://www.w3.org/2000/svg">
<path d="M15.172 7.00016L8.58602 13.5862C8.395 13.7707 8.24264 13.9913 8.13782 14.2354C8.033 14.4794 7.97783 14.7418 7.97552 15.0074C7.97321 15.2729 8.02381 15.5363 8.12438 15.7821C8.22494 16.0279 8.37344 16.2512 8.56123 16.439C8.74902 16.6267 8.97232 16.7752 9.21811 16.8758C9.4639 16.9764 9.72726 17.027 9.99282 17.0247C10.2584 17.0224 10.5208 16.9672 10.7648 16.8624C11.0088 16.7575 11.2295 16.6052 11.414 16.4142L17.828 9.82816C18.5567 9.07376 18.9598 8.06335 18.9507 7.01456C18.9416 5.96577 18.5209 4.96252 17.7793 4.22089C17.0377 3.47926 16.0344 3.05858 14.9856 3.04947C13.9368 3.04035 12.9264 3.44353 12.172 4.17216L5.75702 10.7572C4.63171 11.8825 3.99951 13.4087 3.99951 15.0002C3.99951 16.5916 4.63171 18.1179 5.75702 19.2432C6.88233 20.3685 8.40859 21.0007 10 21.0007C11.5915 21.0007 13.1177 20.3685 14.243 19.2432L20.5 13.0002" stroke="#424242" stroke-width="2" stroke-linecap="round" stroke-linejoin="round"/>
</svg>
