<svg width="37" height="37" viewBox="0 0 37 37" fill="none" xmlns="http://www.w3.org/2000/svg">
<path fill-rule="evenodd" clip-rule="evenodd" d="M18.4992 33.2992C22.4244 33.2992 26.1889 31.7399 28.9644 28.9644C31.7399 26.1889 33.2992 22.4244 33.2992 18.4992C33.2992 14.574 31.7399 10.8096 28.9644 8.03404C26.1889 5.2585 22.4244 3.69922 18.4992 3.69922C14.574 3.69922 10.8096 5.2585 8.03404 8.03404C5.2585 10.8096 3.69922 14.574 3.69922 18.4992C3.69922 22.4244 5.2585 26.1889 8.03404 28.9644C10.8096 31.7399 14.574 33.2992 18.4992 33.2992ZM20.3492 12.9492C20.3492 12.4586 20.1543 11.988 19.8074 11.6411C19.4604 11.2941 18.9899 11.0992 18.4992 11.0992C18.0086 11.0992 17.538 11.2941 17.1911 11.6411C16.8441 11.988 16.6492 12.4586 16.6492 12.9492V16.6492H12.9492C12.4586 16.6492 11.988 16.8441 11.6411 17.1911C11.2941 17.538 11.0992 18.0086 11.0992 18.4992C11.0992 18.9899 11.2941 19.4604 11.6411 19.8074C11.988 20.1543 12.4586 20.3492 12.9492 20.3492H16.6492V24.0492C16.6492 24.5399 16.8441 25.0104 17.1911 25.3574C17.538 25.7043 18.0086 25.8992 18.4992 25.8992C18.9899 25.8992 19.4604 25.7043 19.8074 25.3574C20.1543 25.0104 20.3492 24.5399 20.3492 24.0492V20.3492H24.0492C24.5399 20.3492 25.0104 20.1543 25.3574 19.8074C25.7043 19.4604 25.8992 18.9899 25.8992 18.4992C25.8992 18.0086 25.7043 17.538 25.3574 17.1911C25.0104 16.8441 24.5399 16.6492 24.0492 16.6492H20.3492V12.9492Z" fill="#2976BA"/>
</svg>
