<svg width="21" height="20" viewBox="0 0 21 20" fill="none" xmlns="http://www.w3.org/2000/svg">
<g clip-path="url(#clip0_4252_2752)">
<path d="M6.56309 16.8885V9.1404H1.77979V18.4381H6.56309V16.5786C7.90358 17.7927 9.6736 18.4586 11.5058 18.4381H16.6877C17.133 18.4339 17.5622 18.2755 17.8983 17.9916C18.2343 17.7076 18.4552 17.3165 18.5213 16.8885L19.7172 10.2251C19.9563 9.06292 18.9997 8.3656 17.8836 8.3656H13.738V3.25187C13.6949 2.74595 13.458 2.27418 13.0742 1.92985C12.6904 1.58552 12.1876 1.39371 11.6653 1.39233C11.1599 1.39895 10.6772 1.59699 10.3199 1.9443C9.96253 2.2916 9.75876 2.76075 9.75196 3.25187C9.74905 4.4727 9.35936 5.66303 8.63585 6.66102L6.56309 8.98544" stroke="#B6CFEB" stroke-width="1.65652" stroke-miterlimit="10" stroke-linecap="round" stroke-linejoin="round"/>
</g>
<defs>
<clipPath id="clip0_4252_2752">
<rect width="19.5741" height="18.5954" fill="white" transform="translate(0.982422 0.617432)"/>
</clipPath>
</defs>
</svg>
