<svg width="23" height="26" viewBox="0 0 23 26" fill="none" xmlns="http://www.w3.org/2000/svg">
<path fill-rule="evenodd" clip-rule="evenodd" d="M3.8939 11.209V8.05139C3.8939 5.95779 4.72557 3.94994 6.20597 2.46955C7.68637 0.989149 9.69422 0.157471 11.7878 0.157471C13.8814 0.157471 15.8893 0.989149 17.3697 2.46955C18.8501 3.94994 19.6817 5.95779 19.6817 8.05139V11.209C20.5192 11.209 21.3223 11.5416 21.9145 12.1338C22.5066 12.726 22.8393 13.5291 22.8393 14.3665V22.2605C22.8393 23.0979 22.5066 23.901 21.9145 24.4932C21.3223 25.0853 20.5192 25.418 19.6817 25.418H3.8939C3.05646 25.418 2.25332 25.0853 1.66116 24.4932C1.069 23.901 0.736328 23.0979 0.736328 22.2605V14.3665C0.736328 13.5291 1.069 12.726 1.66116 12.1338C2.25332 11.5416 3.05646 11.209 3.8939 11.209ZM16.5242 8.05139V11.209H7.05146V8.05139C7.05146 6.79523 7.55047 5.59052 8.43871 4.70228C9.32695 3.81405 10.5317 3.31504 11.7878 3.31504C13.044 3.31504 14.2487 3.81405 15.1369 4.70228C16.0252 5.59052 16.5242 6.79523 16.5242 8.05139Z" fill="white"/>
</svg>
