<svg width="53" height="53" viewBox="0 0 53 53" fill="none" xmlns="http://www.w3.org/2000/svg">
<rect opacity="0.12" width="53" height="53" rx="10" fill="white"/>
<path d="M24.8315 22.2174L24.8333 42.2894L15.6716 42.2906C12.6473 42.2906 10.1758 39.9236 10.009 36.941L10 36.6192V22.2174H24.8315ZM27.4492 32.6879H42.2842L42.2856 36.6192C42.2852 39.7513 39.7461 42.2906 36.6139 42.2906L27.4509 42.2894L27.4492 32.6879ZM36.615 10C39.6393 10 42.1108 12.367 42.2776 15.3496L42.2866 15.6714L42.2842 30.0703H27.4492L27.4509 10H36.615ZM24.8333 10L24.8315 19.5997H10L10.001 15.6714C10.0014 12.5393 12.5405 10 15.6727 10H24.8333Z" fill="white"/>
</svg>
