<svg width="25" height="25" viewBox="0 0 25 25" fill="none" xmlns="http://www.w3.org/2000/svg">
<path d="M13.9043 5.17139V7.60105" stroke="#BDBDBD" stroke-width="1.50599" stroke-linecap="round" stroke-linejoin="round"/>
<path d="M13.9043 18.7351V20.7672" stroke="#BDBDBD" stroke-width="1.50599" stroke-linecap="round" stroke-linejoin="round"/>
<path d="M13.9043 15.2859V10.4457" stroke="#BDBDBD" stroke-width="1.50599" stroke-linecap="round" stroke-linejoin="round"/>
<path fill-rule="evenodd" clip-rule="evenodd" d="M18.7767 20.9841C20.606 20.9841 22.0877 19.5208 22.0877 17.7142V15.1114C20.8772 15.1114 19.9023 14.1486 19.9023 12.9532C19.9023 11.7577 20.8772 10.7939 22.0877 10.7939L22.0867 8.19003C22.0867 6.38344 20.6039 4.92017 18.7756 4.92017H5.31991C3.49161 4.92017 2.00886 6.38344 2.00886 8.19003L2.00781 10.8787C3.2183 10.8787 4.19319 11.7577 4.19319 12.9532C4.19319 14.1486 3.2183 15.1114 2.00781 15.1114V17.7142C2.00781 19.5208 3.48951 20.9841 5.31886 20.9841H18.7767Z" stroke="#BDBDBD" stroke-width="1.50599" stroke-linecap="round" stroke-linejoin="round"/>
</svg>
