<svg width="19" height="19" viewBox="0 0 19 19" fill="none" xmlns="http://www.w3.org/2000/svg">
<g clip-path="url(#clip0_637_4036)">
<path d="M9.64844 1.28052C9.0517 1.28052 8.4794 1.51757 8.05745 1.93953C7.63549 2.36148 7.39844 2.93378 7.39844 3.53052V9.53052C7.39844 10.1273 7.63549 10.6996 8.05745 11.1215C8.4794 11.5435 9.0517 11.7805 9.64844 11.7805C10.2452 11.7805 10.8175 11.5435 11.2394 11.1215C11.6614 10.6996 11.8984 10.1273 11.8984 9.53052V3.53052C11.8984 2.93378 11.6614 2.36148 11.2394 1.93953C10.8175 1.51757 10.2452 1.28052 9.64844 1.28052V1.28052Z" stroke="white" stroke-width="2" stroke-linecap="round" stroke-linejoin="round"/>
<path d="M14.8984 8.03052V9.53052C14.8984 10.9229 14.3453 12.2583 13.3607 13.2428C12.3762 14.2274 11.0408 14.7805 9.64844 14.7805C8.25605 14.7805 6.92069 14.2274 5.93613 13.2428C4.95156 12.2583 4.39844 10.9229 4.39844 9.53052V8.03052" stroke="white" stroke-width="2" stroke-linecap="round" stroke-linejoin="round"/>
<path d="M9.64844 14.7805V17.7805" stroke="white" stroke-width="2" stroke-linecap="round" stroke-linejoin="round"/>
<path d="M6.64844 17.7805H12.6484" stroke="white" stroke-width="2" stroke-linecap="round" stroke-linejoin="round"/>
</g>
<defs>
<clipPath id="clip0_637_4036">
<rect width="18" height="18" fill="white" transform="translate(0.648438 0.530518)"/>
</clipPath>
</defs>
</svg>
