<svg width="19" height="25" viewBox="0 0 19 25" fill="none" xmlns="http://www.w3.org/2000/svg">
<path d="M0 20.9V18.4412H2.375V9.83529C2.375 8.13461 2.86979 6.62346 3.85938 5.30184C4.84896 3.98022 6.13542 3.11451 7.71875 2.70471V1.84412C7.71875 1.33186 7.89193 0.896446 8.23828 0.537868C8.58464 0.179289 9.00521 0 9.5 0C9.99479 0 10.4154 0.179289 10.7617 0.537868C11.1081 0.896446 11.2812 1.33186 11.2812 1.84412V2.70471C12.8646 3.11451 14.151 3.98022 15.1406 5.30184C16.1302 6.62346 16.625 8.13461 16.625 9.83529V18.4412H19V20.9H0ZM9.5 24.5882C8.84688 24.5882 8.28776 24.3475 7.82266 23.866C7.35755 23.3844 7.125 22.8056 7.125 22.1294H11.875C11.875 22.8056 11.6424 23.3844 11.1773 23.866C10.7122 24.3475 10.1531 24.5882 9.5 24.5882ZM4.75 18.4412H14.25V9.83529C14.25 8.48294 13.7849 7.32525 12.8547 6.36221C11.9245 5.39917 10.8062 4.91765 9.5 4.91765C8.19375 4.91765 7.07552 5.39917 6.14531 6.36221C5.2151 7.32525 4.75 8.48294 4.75 9.83529V18.4412Z" fill="#FAFAFA"/>
<circle cx="15.0885" cy="8.38247" r="3.91176" fill="white"/>
<circle cx="15.0881" cy="8.38299" r="2.79412" fill="#2976BA"/>
</svg>
