<svg width="38" height="28" viewBox="0 0 38 28" fill="none" xmlns="http://www.w3.org/2000/svg">
<path d="M37.8634 23.7154L34.48 19.4608V1.56757C34.48 0.702035 33.7781 0 32.9125 0H5.08688C4.22134 0 3.52005 0.701961 3.52005 1.56757V19.4608L0.136117 23.7154C0.0475 23.8264 0 23.9637 0 24.1062V25.9893C0 26.6804 0.559535 27.2398 1.24992 27.2398H36.7495C37.4399 27.2398 38 26.6804 38 25.9893V24.1062C38 23.9637 37.9518 23.8264 37.8634 23.7154ZM5.7311 2.21179H32.2683V17.249H5.7311V2.21179ZM22.5713 25.7526H15.4287V23.8617H22.5713V25.7526Z" fill="white"/>
<path d="M12.4298 12.8271H9.80176V15.4552H12.4298V12.8271Z" fill="white"/>
<path d="M16.3717 10.1982H13.7437V15.4545H16.3717V10.1982Z" fill="white"/>
<path d="M20.3141 8.88477H17.686V15.4551H20.3141V8.88477Z" fill="white"/>
<path d="M24.256 4.94238H21.6279V15.4549H24.256V4.94238Z" fill="white"/>
<path d="M28.1984 7.57031H25.5703V15.4546H28.1984V7.57031Z" fill="white"/>
</svg>
