<svg width="53" height="53" viewBox="0 0 53 53" fill="none" xmlns="http://www.w3.org/2000/svg">
<rect opacity="0.05" width="53" height="53" rx="10" fill="white"/>
<path d="M45.8634 36.7154L42.48 32.4608V14.5676C42.48 13.702 41.7781 13 40.9125 13H13.0869C12.2213 13 11.52 13.702 11.52 14.5676V32.4608L8.13612 36.7154C8.0475 36.8264 8 36.9637 8 37.1062V38.9893C8 39.6804 8.55954 40.2398 9.24992 40.2398H44.7495C45.4399 40.2398 46 39.6804 46 38.9893V37.1062C46 36.9637 45.9518 36.8264 45.8634 36.7154ZM13.7311 15.2118H40.2683V30.249H13.7311V15.2118ZM30.5713 38.7526H23.4287V36.8617H30.5713V38.7526Z" fill="#2976BA"/>
<path d="M20.4298 25.8267H17.8018V28.4547H20.4298V25.8267Z" fill="#2976BA"/>
<path d="M24.3717 23.1987H21.7437V28.455H24.3717V23.1987Z" fill="#2976BA"/>
<path d="M28.3141 21.8848H25.686V28.4551H28.3141V21.8848Z" fill="#2976BA"/>
<path d="M32.256 17.9424H29.6279V28.4549H32.256V17.9424Z" fill="#2976BA"/>
<path d="M36.1984 20.5708H33.5703V28.4551H36.1984V20.5708Z" fill="#2976BA"/>
</svg>
