<svg width="24" height="25" viewBox="0 0 24 25" fill="none" xmlns="http://www.w3.org/2000/svg">
<path d="M8 7.6123V3.6123M16 7.6123V3.6123M7 11.6123H17M5 21.6123H19C19.5304 21.6123 20.0391 21.4016 20.4142 21.0265C20.7893 20.6514 21 20.1427 21 19.6123V7.6123C21 7.08187 20.7893 6.57316 20.4142 6.19809C20.0391 5.82302 19.5304 5.6123 19 5.6123H5C4.46957 5.6123 3.96086 5.82302 3.58579 6.19809C3.21071 6.57316 3 7.08187 3 7.6123V19.6123C3 20.1427 3.21071 20.6514 3.58579 21.0265C3.96086 21.4016 4.46957 21.6123 5 21.6123Z" stroke="#BDBDBD" stroke-width="2" stroke-linecap="round" stroke-linejoin="round"/>
</svg>
