<svg width="20" height="20" viewBox="0 0 20 20" fill="none" xmlns="http://www.w3.org/2000/svg">
<path fill-rule="evenodd" clip-rule="evenodd" d="M10.2273 17.2275C12.2043 17.2275 14.1004 16.4421 15.4984 15.0441C16.8964 13.6461 17.6818 11.75 17.6818 9.7729C17.6818 7.79584 16.8964 5.89974 15.4984 4.50175C14.1004 3.10375 12.2043 2.31836 10.2273 2.31836C8.25018 2.31836 6.35409 3.10375 4.95609 4.50175C3.55809 5.89974 2.77271 7.79584 2.77271 9.7729C2.77271 11.75 3.55809 13.6461 4.95609 15.0441C6.35409 16.4421 8.25018 17.2275 10.2273 17.2275ZM9.02241 7.25047C8.84667 7.08074 8.61129 6.98681 8.36697 6.98894C8.12265 6.99106 7.88894 7.08906 7.71617 7.26182C7.5434 7.43459 7.4454 7.6683 7.44328 7.91262C7.44116 8.15694 7.53508 8.39232 7.70482 8.56806L8.90966 9.7729L7.70482 10.9777C7.61582 11.0637 7.54483 11.1665 7.496 11.2802C7.44716 11.3939 7.42146 11.5162 7.42038 11.6399C7.41931 11.7636 7.44288 11.8863 7.48973 12.0008C7.53659 12.1154 7.60578 12.2194 7.69327 12.3069C7.78076 12.3944 7.8848 12.4636 7.99932 12.5104C8.11383 12.5573 8.23653 12.5809 8.36026 12.5798C8.48399 12.5787 8.60626 12.553 8.71995 12.5042C8.83363 12.4553 8.93645 12.3843 9.02241 12.2953L10.2273 11.0905L11.4321 12.2953C11.6078 12.4651 11.8432 12.559 12.0875 12.5569C12.3319 12.5548 12.5656 12.4568 12.7383 12.284C12.9111 12.1112 13.0091 11.8775 13.0112 11.6332C13.0133 11.3889 12.9194 11.1535 12.7497 10.9777L11.5448 9.7729L12.7497 8.56806C12.9194 8.39232 13.0133 8.15694 13.0112 7.91262C13.0091 7.6683 12.9111 7.43459 12.7383 7.26182C12.5656 7.08906 12.3319 6.99106 12.0875 6.98894C11.8432 6.98681 11.6078 7.08074 11.4321 7.25047L10.2273 8.45531L9.02241 7.25047Z" fill="#F75555"/>
</svg>
