<svg width="25" height="25" viewBox="0 0 25 25" fill="none" xmlns="http://www.w3.org/2000/svg">
<path fill-rule="evenodd" clip-rule="evenodd" d="M20.8901 7.65864L20.2652 6.57423C19.7365 5.65666 18.5649 5.34012 17.6461 5.86661V5.86661C17.2087 6.12426 16.6868 6.19736 16.1955 6.06979C15.7041 5.94222 15.2837 5.62445 15.027 5.18656C14.8618 4.90823 14.773 4.59122 14.7696 4.26757V4.26757C14.7845 3.74869 14.5888 3.24587 14.227 2.87366C13.8651 2.50144 13.3681 2.29153 12.849 2.29175H11.5899C11.0814 2.29174 10.5938 2.49439 10.2351 2.85486C9.87631 3.21532 9.676 3.70388 9.67845 4.21243V4.21243C9.66337 5.26242 8.80785 6.10566 7.75776 6.10555C7.43412 6.10219 7.1171 6.01342 6.83877 5.84823V5.84823C5.91995 5.32174 4.74834 5.63828 4.21966 6.55585L3.5488 7.65864C3.02076 8.57507 3.33299 9.74594 4.24723 10.2778V10.2778C4.8415 10.6209 5.20758 11.2549 5.20758 11.9411C5.20758 12.6273 4.8415 13.2614 4.24723 13.6045V13.6045C3.33415 14.1327 3.02158 15.3008 3.5488 16.2144V16.2144L4.1829 17.308C4.4306 17.755 4.84621 18.0848 5.33776 18.2245C5.82931 18.3642 6.35626 18.3023 6.80201 18.0524V18.0524C7.24022 17.7967 7.7624 17.7266 8.2525 17.8578C8.74261 17.989 9.16001 18.3105 9.41194 18.7508C9.57713 19.0292 9.6659 19.3462 9.66926 19.6698V19.6698C9.66926 20.7306 10.5292 21.5905 11.5899 21.5905H12.849C13.9061 21.5905 14.7646 20.7362 14.7696 19.679V19.679C14.7672 19.1689 14.9688 18.6789 15.3295 18.3182C15.6902 17.9574 16.1802 17.7559 16.6903 17.7583C17.0132 17.767 17.3289 17.8554 17.6093 18.0156V18.0156C18.5257 18.5437 19.6966 18.2314 20.2284 17.3172V17.3172L20.8901 16.2144C21.1462 15.7748 21.2165 15.2512 21.0854 14.7597C20.9543 14.2681 20.6327 13.849 20.1917 13.5953V13.5953C19.7507 13.3416 19.429 12.9225 19.2979 12.431C19.1668 11.9394 19.2371 11.4158 19.4932 10.9762C19.6598 10.6854 19.9009 10.4443 20.1917 10.2778V10.2778C21.1004 9.74623 21.4119 8.58219 20.8901 7.66783V7.66783V7.65864Z" stroke="#BDBDBD" stroke-width="1.50599" stroke-linecap="round" stroke-linejoin="round"/>
<circle cx="12.2238" cy="11.9409" r="2.64669" stroke="#BDBDBD" stroke-width="1.50599" stroke-linecap="round" stroke-linejoin="round"/>
</svg>
