<svg width="15" height="15" viewBox="0 0 15 15" fill="none" xmlns="http://www.w3.org/2000/svg">
<path d="M11.2496 6C11.7064 6.00002 12.1525 5.86095 12.5284 5.6013C12.9043 5.34165 13.1923 4.97372 13.354 4.54643C13.5157 4.11914 13.5435 3.65275 13.4337 3.20928C13.3239 2.7658 13.0817 2.36626 12.7393 2.06378C12.3969 1.7613 11.9706 1.57021 11.517 1.51594C11.0633 1.46166 10.6039 1.54676 10.1998 1.75993C9.79575 1.9731 9.46613 2.30423 9.25481 2.70928C9.04349 3.11434 8.96048 3.57413 9.01683 4.0275L5.31183 5.88C4.994 5.57352 4.59303 5.36732 4.15885 5.28709C3.72467 5.20685 3.27649 5.25614 2.87012 5.4288C2.46375 5.60147 2.11717 5.88987 1.87354 6.2581C1.62991 6.62633 1.5 7.0581 1.5 7.49963C1.5 7.94115 1.62991 8.37292 1.87354 8.74115C2.11717 9.10938 2.46375 9.39779 2.87012 9.57045C3.27649 9.74311 3.72467 9.7924 4.15885 9.71217C4.59303 9.63194 4.994 9.42574 5.31183 9.11925L9.01683 10.9718C8.9512 11.4984 9.07388 12.0314 9.36317 12.4763C9.65246 12.9213 10.0897 13.2497 10.5977 13.4035C11.1057 13.5572 11.6517 13.5265 12.1392 13.3166C12.6267 13.1067 13.0243 12.7313 13.2618 12.2566C13.4993 11.782 13.5613 11.2386 13.4369 10.7227C13.3125 10.2067 13.0097 9.75131 12.5821 9.43698C12.1544 9.12265 11.6294 8.96963 11.0998 9.00495C10.5703 9.04027 10.0702 9.26166 9.68808 9.63L5.98308 7.7775C6.00578 7.5932 6.00578 7.40681 5.98308 7.2225L9.68808 5.37C10.0916 5.76 10.6421 6 11.2496 6Z" fill="white"/>
</svg>
