<svg width="20" height="21" viewBox="0 0 20 21" fill="none" xmlns="http://www.w3.org/2000/svg">
<path d="M15.6087 13.0759C15.0298 13.0773 14.4593 13.2156 13.944 13.4795C13.4287 13.7434 12.9831 14.1254 12.6436 14.5944L8.02831 11.5179C8.31916 10.7424 8.31916 9.88775 8.02831 9.11224L12.6436 6.03571C13.1616 6.73801 13.9131 7.23257 14.763 7.43053C15.613 7.62848 16.5056 7.51687 17.2807 7.11572C18.0557 6.71458 18.6623 6.05021 18.9914 5.24198C19.3206 4.43375 19.3507 3.53463 19.0764 2.70616C18.8022 1.8777 18.2414 1.17419 17.495 0.722041C16.7486 0.26989 15.8654 0.0987295 15.0041 0.239313C14.1428 0.379896 13.3599 0.823007 12.796 1.48904C12.2321 2.15506 11.9242 3.00035 11.9276 3.87303C11.9335 4.00713 11.9471 4.14078 11.9681 4.27336L7.00679 7.58088C6.47807 7.10425 5.8225 6.79114 5.11947 6.67948C4.41644 6.56781 3.69611 6.66237 3.04573 6.95171C2.39534 7.24105 1.8428 7.71276 1.45501 8.3097C1.06723 8.90665 0.86084 9.60322 0.86084 10.3151C0.86084 11.0269 1.06723 11.7235 1.45501 12.3204C1.8428 12.9174 2.39534 13.3891 3.04573 13.6784C3.69611 13.9677 4.41644 14.0623 5.11947 13.9506C5.8225 13.839 6.47807 13.5259 7.00679 13.0492L11.9681 16.3568C11.9471 16.4893 11.9335 16.623 11.9276 16.7571C11.9276 17.4852 12.1435 18.1969 12.548 18.8022C12.9525 19.4076 13.5274 19.8794 14.2 20.158C14.8727 20.4367 15.6128 20.5096 16.3269 20.3675C17.041 20.2255 17.6969 19.8749 18.2117 19.3601C18.7265 18.8452 19.0771 18.1893 19.2192 17.4752C19.3612 16.7612 19.2883 16.021 19.0097 15.3484C18.7311 14.6757 18.2592 14.1008 17.6539 13.6963C17.0485 13.2918 16.3368 13.0759 15.6087 13.0759Z" fill="#2976BA"/>
</svg>
