<svg width="60" height="60" viewBox="0 0 60 60" fill="none" xmlns="http://www.w3.org/2000/svg">
<path d="M15.8908 4.49414L13.8986 5.21719C14.6251 7.2082 14.965 9.22148 14.1681 11.2312C14.6955 11.7891 15.2111 12.3398 15.7267 12.8789C17.1916 10.0184 16.8048 7.00195 15.8908 4.49414ZM12.8673 12.9258C12.0705 13.2305 11.365 13.6172 10.7263 14.0625C13.9103 17.5547 16.6056 21.2812 18.1994 24.8555C19.6876 28.2188 20.2384 31.5703 19.0431 34.3594L44.8009 52.9805C48.0236 52.8164 50.1095 52.0312 51.5392 50.9297C53.0392 49.7812 53.8947 48.2461 54.5158 46.4297C54.1759 46.0547 53.8009 45.6914 53.3908 45.3281C50.3791 45.8555 47.7423 45.2578 45.5509 43.875C43.2658 42.4453 41.4728 40.2305 39.9494 37.6641C37.0783 32.8242 35.1447 26.6484 33.1876 21.5508C27.9728 22.0781 24.1525 21.3516 21.1525 19.8867C17.5666 18.1289 15.2111 15.4219 12.8673 12.9258ZM9.12671 15.4453C8.59116 16.0195 8.11303 16.6523 7.68061 17.332C6.44311 19.2891 5.59468 21.668 4.86928 24.1172L17.2736 33.082C17.9415 31.0781 17.5431 28.5703 16.2658 25.7109C14.8009 22.4414 12.2111 18.8438 9.12671 15.4453ZM37.1251 20.9531C36.5158 21.0703 35.9298 21.1758 35.3439 21.2695C35.7775 22.4062 36.2111 23.5781 36.6447 24.7617L39.6916 26.2969C38.883 24.4102 38.0861 22.6055 37.1251 20.9531ZM3.69272 25.875C3.37397 26.2148 3.16772 26.5664 3.06108 26.9297C2.91694 27.3984 2.93569 27.9141 3.17944 28.5469L31.172 46.6406C33.7267 48.2812 36.0236 49.6406 38.1095 50.7539L3.69272 25.875ZM37.7111 27.668C38.5197 29.8125 39.3751 31.9336 40.3244 33.8906L44.215 35.6133C42.9025 33.4922 41.8947 31.3828 40.9923 29.3203L37.7111 27.668ZM41.9533 36.9023C43.3244 39.1523 44.883 40.9688 46.6759 42.0938C47.965 42.9023 49.3595 43.3711 50.9884 43.418C49.2541 41.9648 47.8126 40.4648 46.5822 38.9414L41.9533 36.9023ZM55.9923 48.4336C55.3009 49.9922 54.3283 51.457 52.8283 52.6055C51.4923 53.625 49.7814 54.3867 47.59 54.7852C49.6408 55.3594 51.2462 55.5469 52.465 55.5C54.2111 55.4297 55.2072 54.9492 55.8165 54.4687C56.4259 53.9883 56.6603 53.5078 56.7658 53.2734C57.1759 52.3594 57.1408 50.9414 56.4728 49.3711C56.3439 49.0664 56.1798 48.75 55.9923 48.4336Z" fill="#2976BA"/>
</svg>
