<svg width="39" height="40" viewBox="0 0 39 40" fill="none" xmlns="http://www.w3.org/2000/svg">
<path d="M2.52144 22.8016C3.41141 23.3663 3.71788 23.9435 4.0957 24.9132C4.17117 25.104 4.17117 25.104 4.24815 25.2987C4.40696 25.7023 4.56166 26.1073 4.71646 26.5125C4.82397 26.7862 4.93172 27.0599 5.03973 27.3334C5.82004 29.3272 5.82004 29.3272 5.82004 29.7869C5.9246 29.7097 6.02917 29.6324 6.13691 29.5529C6.61735 29.1982 7.09792 28.8437 7.57848 28.4893C7.74294 28.3678 7.90739 28.2464 8.07683 28.1213C8.23879 28.0018 8.40074 27.8824 8.56761 27.7593C8.71494 27.6506 8.86228 27.5419 9.01408 27.4299C9.17665 27.3112 9.33921 27.1926 9.5067 27.0704C9.68464 26.8994 9.86257 26.7285 10.0459 26.5524C11.1828 25.7504 12.7071 25.9404 14.043 25.9372C14.3565 25.9341 14.67 25.9308 14.9835 25.9275C15.64 25.9217 16.2963 25.9198 16.9528 25.9204C17.787 25.9205 18.6204 25.9073 19.4544 25.8906C20.1022 25.8797 20.7498 25.8778 21.3977 25.8783C21.7047 25.8772 22.0118 25.873 22.3187 25.8654C24.591 25.8145 25.9106 26.3117 27.6395 27.7897C28.132 28.2008 28.6546 28.5658 29.177 28.938C29.4762 29.1561 29.7754 29.3744 30.0744 29.5928C30.4783 28.987 30.7112 28.4213 30.9756 27.7434C31.0759 27.4915 31.1763 27.2396 31.2769 26.9878C31.4342 26.5923 31.5906 26.1966 31.7442 25.7998C31.8934 25.4156 32.0466 25.0333 32.2005 24.651C32.2905 24.422 32.3805 24.193 32.4732 23.9571C32.8315 23.3104 33.0874 23.091 33.7611 22.8016C34.5076 22.8147 34.9624 22.895 35.5923 23.2988C36.0179 23.9627 35.9834 24.5643 35.8955 25.3241C35.7246 25.9504 35.4861 26.5405 35.2368 27.1393C35.1693 27.3071 35.1018 27.4749 35.0322 27.6478C34.8897 28.0003 34.746 28.3524 34.601 28.7039C34.3798 29.2405 34.1624 29.7786 33.9457 30.317C33.8063 30.6606 33.6667 31.0041 33.5269 31.3475C33.4295 31.5873 33.4295 31.5873 33.3302 31.832C32.4641 33.928 32.4641 33.928 31.8207 34.2497C30.6035 34.3585 29.9584 34.1851 28.9951 33.4129C28.7887 33.2559 28.5823 33.0991 28.3759 32.9422C28.104 32.7334 27.8321 32.5245 27.552 32.3093C26.5915 31.605 25.631 30.9006 24.6414 30.1749C24.6414 33.1204 24.6414 36.0658 24.6414 39.1005C20.2873 39.1005 15.9331 39.1005 11.4471 39.1005C11.383 36.2191 11.319 33.3377 11.253 30.369C10.6767 30.7932 10.1005 31.2174 9.5067 31.6545C9.32837 31.7857 9.15003 31.9169 8.96629 32.0521C8.82046 32.1595 8.67464 32.2669 8.5244 32.3775C8.36339 32.4956 8.20237 32.6136 8.03647 32.7352C7.73135 32.9625 7.4293 33.1941 7.1311 33.4304C6.9976 33.5357 6.86409 33.641 6.72655 33.7494C6.61068 33.8432 6.49481 33.9369 6.37543 34.0335C5.82472 34.363 5.30126 34.3732 4.67099 34.3664C4.08207 34.1959 3.88742 33.9502 3.49162 33.4735C3.18434 32.8698 2.94012 32.2443 2.69425 31.6135C2.62214 31.4322 2.55002 31.2509 2.47572 31.064C2.32406 30.6811 2.17343 30.2979 2.02375 29.9142C1.79471 29.3283 1.56144 28.7443 1.32767 28.1603C1.18062 27.7875 1.03383 27.4146 0.887302 27.0416C0.817584 26.8675 0.747866 26.6934 0.676035 26.5141C0.34001 25.6444 0.0667904 24.914 0.19302 23.9658C0.863925 22.9595 1.31002 22.6828 2.52144 22.8016Z" fill="white"/>
<path d="M21.04 15.5615C22.1663 16.5285 22.941 17.5983 23.0895 19.1147C23.1079 20.6875 22.858 22.0195 21.757 23.1849C20.3971 24.4319 19.2592 24.6751 17.4246 24.6197C16.1801 24.4983 15.2552 24.1048 14.3829 23.2016C13.1796 21.678 12.9951 20.2559 13.1937 18.3386C13.6119 16.8817 14.4212 15.9872 15.7161 15.234C17.3879 14.3981 19.4989 14.4678 21.04 15.5615Z" fill="white"/>
<path d="M32.4032 5.14404C32.5312 5.14404 32.6593 5.14404 32.7912 5.14404C32.8593 5.2666 32.9274 5.38916 32.9975 5.51544C34.519 8.25181 36.065 10.9707 37.6497 13.671C37.7485 13.8401 37.8474 14.0093 37.9493 14.1835C38.1222 14.478 38.2967 14.7716 38.4734 15.0639C39.0004 15.9474 39.0004 15.9474 39.0004 16.5921C34.7102 16.5921 30.4201 16.5921 26 16.5921C26.2787 15.7561 26.4903 15.193 26.9247 14.4661C27.0322 14.2844 27.1396 14.1028 27.2504 13.9156C27.366 13.7223 27.4817 13.529 27.6008 13.3299C28.7457 11.3952 29.8554 9.44533 30.9416 7.47715C31.0485 7.28451 31.1554 7.09187 31.2655 6.89339C31.3589 6.72387 31.4524 6.55435 31.5487 6.37969C31.8099 5.93901 32.0696 5.53309 32.4032 5.14404ZM32.4032 8.63667C31.9955 9.36845 31.5882 10.1003 31.181 10.8324C31.0425 11.0812 30.904 11.33 30.7654 11.5788C30.5659 11.937 30.3665 12.2954 30.1672 12.6538C30.0473 12.8692 29.9274 13.0846 29.8039 13.3066C29.5614 13.75 29.3306 14.1998 29.1046 14.6518C31.3457 14.6518 33.5868 14.6518 35.8958 14.6518C34.7494 12.3496 34.7494 12.3496 33.4946 10.1162C33.4098 9.97112 33.325 9.82605 33.2377 9.67658C33.0304 9.3262 32.8147 8.98082 32.5972 8.63667C32.5332 8.63667 32.4691 8.63667 32.4032 8.63667Z" fill="white"/>
<path d="M6.40201 6.69629C6.97493 6.95434 7.37675 7.23528 7.81843 7.68058C7.9388 7.80098 8.05917 7.92138 8.18318 8.04542C8.31075 8.17499 8.43832 8.30456 8.56975 8.43806C8.76837 8.6375 8.76837 8.6375 8.971 8.84097C9.39299 9.26513 9.81361 9.69062 10.2342 10.1162C10.5204 10.4043 10.8066 10.6923 11.093 10.9802C11.7941 11.6856 12.494 12.3922 13.1932 13.0994C12.9396 13.6574 12.6674 14.064 12.2391 14.5011C12.1251 14.6182 12.0111 14.7354 11.8936 14.856C11.7707 14.9799 11.6478 15.1039 11.5212 15.2316C11.331 15.4244 11.331 15.4244 11.1369 15.6212C10.869 15.8919 10.6005 16.1621 10.3315 16.4318C9.91936 16.8463 9.51097 17.2642 9.10259 17.6824C8.84182 17.945 8.58084 18.2074 8.31962 18.4695C8.19752 18.5954 8.07542 18.7213 7.94961 18.851C7.77676 19.0221 7.77676 19.0221 7.60043 19.1966C7.49991 19.2981 7.39939 19.3996 7.29583 19.5042C6.98412 19.6966 6.98412 19.6966 6.59774 19.666C6.15637 19.481 5.90522 19.2761 5.56462 18.9407C5.44363 18.8228 5.32263 18.7049 5.19797 18.5834C5.0698 18.4553 4.94162 18.3272 4.80956 18.1951C4.61025 17.998 4.61025 17.998 4.40692 17.797C4.12681 17.519 3.84747 17.2402 3.56884 16.9607C3.14071 16.5324 2.70861 16.1083 2.27611 15.6844C2.00464 15.414 1.73341 15.1433 1.46246 14.8723C1.33232 14.7453 1.20218 14.6184 1.06809 14.4876C0.950158 14.3678 0.832222 14.2481 0.710712 14.1247C0.605765 14.0202 0.500817 13.9156 0.39269 13.8079C0.19289 13.4875 0.19289 13.4875 0.221657 13.0996C0.410405 12.6562 0.618676 12.4094 0.96112 12.0711C1.08153 11.9507 1.20194 11.8304 1.326 11.7063C1.45658 11.5788 1.58715 11.4512 1.72167 11.3198C1.85491 11.1874 1.98815 11.055 2.12542 10.9185C2.55113 10.4961 2.97882 10.0757 3.4066 9.65532C3.69563 9.36921 3.98454 9.08296 4.27331 8.79657C4.98137 8.09493 5.69121 7.39514 6.40201 6.69629ZM6.21778 9.57498C5.97544 9.81885 5.97544 9.81885 5.7282 10.0676C5.55373 10.2427 5.37927 10.4178 5.19953 10.5982C5.0142 10.7852 4.82888 10.9721 4.64357 11.1591C4.45754 11.3461 4.27146 11.5331 4.08534 11.72C3.62824 12.1794 3.1716 12.6392 2.71535 13.0994C3.5377 14.0825 4.39842 15.0011 5.31057 15.9008C5.43488 16.0243 5.55919 16.1477 5.68727 16.2749C5.98975 16.5751 6.29268 16.8749 6.59605 17.1742C7.57908 16.3518 8.49767 15.4911 9.39743 14.579C9.52087 14.4547 9.6443 14.3303 9.77148 14.2023C10.0717 13.8998 10.3715 13.5969 10.6708 13.2935C9.8501 12.314 8.99393 11.3926 8.08769 10.4921C7.90366 10.3069 7.90366 10.3069 7.71592 10.1181C7.59924 10.0016 7.48255 9.88519 7.36234 9.76523C7.25695 9.66007 7.15157 9.5549 7.043 9.44656C6.63245 9.07676 6.64022 9.17714 6.21778 9.57498Z" fill="white"/>
<path d="M22.0217 0.681023C23.2435 1.38837 24.0118 2.45242 24.4471 3.78558C24.6468 5.50711 24.5536 7.03451 23.477 8.44243C22.3516 9.53151 21.2302 10.0496 19.6569 10.0796C18.1564 10.0529 16.9971 9.74725 15.9338 8.64859C14.7323 7.12355 14.5467 5.70357 14.7454 3.78558C15.159 2.34448 15.9689 1.40923 17.2678 0.681023C18.7235 -0.0236605 20.5561 0.0205232 22.0217 0.681023ZM17.1102 3.20348C16.4703 4.08107 16.3826 4.85748 16.4917 5.91997C16.8523 6.94175 17.3849 7.43227 18.238 8.05436C19.2045 8.37651 20.0431 8.36463 20.9909 8.0301C21.8122 7.48253 22.3824 6.87515 22.7008 5.91997C22.7723 4.83027 22.7426 4.13938 22.1187 3.20348C21.3557 2.43213 20.7324 2.06288 19.6326 1.99076C18.5469 2.01064 17.8199 2.38832 17.1102 3.20348Z" fill="white"/>
</svg>
