<svg width="32" height="33" viewBox="0 0 32 33" fill="none" xmlns="http://www.w3.org/2000/svg">
<path fill-rule="evenodd" clip-rule="evenodd" d="M2.66663 16.6873C2.66663 9.66348 8.27996 3.33398 16.0266 3.33398C23.6 3.33398 29.3333 9.5433 29.3333 16.6473C29.3333 24.8863 22.6133 30.0007 16 30.0007C13.8133 30.0007 11.3866 29.4131 9.43996 28.2647C8.75996 27.8508 8.18663 27.5436 7.45329 27.784L4.75996 28.5852C4.07996 28.7988 3.46663 28.2647 3.66663 27.5436L4.55996 24.5525C4.70663 24.1385 4.67996 23.6979 4.46663 23.3507C3.31996 21.2408 2.66663 18.9307 2.66663 16.6873ZM14.2666 16.6873C14.2666 17.6354 15.0266 18.3966 15.9733 18.4099C16.92 18.4099 17.68 17.6354 17.68 16.7007C17.68 15.7526 16.92 14.9915 15.9733 14.9915C15.04 14.9781 14.2666 15.7526 14.2666 16.6873ZM20.4133 16.7007C20.4133 17.6354 21.1733 18.4099 22.12 18.4099C23.0666 18.4099 23.8266 17.6354 23.8266 16.7007C23.8266 15.7526 23.0666 14.9915 22.12 14.9915C21.1733 14.9915 20.4133 15.7526 20.4133 16.7007ZM9.82663 18.4099C8.89329 18.4099 8.11996 17.6354 8.11996 16.7007C8.11996 15.7526 8.87996 14.9915 9.82663 14.9915C10.7733 14.9915 11.5333 15.7526 11.5333 16.7007C11.5333 17.6354 10.7733 18.3966 9.82663 18.4099Z" fill="url(#paint0_linear_631_5018)"/>
<defs>
<linearGradient id="paint0_linear_631_5018" x1="29.3333" y1="30.0007" x2="-2.39765" y2="20.8006" gradientUnits="userSpaceOnUse">
<stop stop-color="#2976BA"/>
<stop offset="1" stop-color="#43B9E7"/>
</linearGradient>
</defs>
</svg>
