<svg width="25" height="25" viewBox="0 0 25 25" fill="none" xmlns="http://www.w3.org/2000/svg">
<path d="M11.7384 4.59511C11.9796 4.05409 12.1002 3.78358 12.2681 3.70028C12.414 3.6279 12.5852 3.6279 12.731 3.70028C12.899 3.78358 13.0196 4.05409 13.2607 4.59511L15.1816 8.90441C15.2529 9.06435 15.2885 9.14432 15.3438 9.20556C15.3925 9.25975 15.4522 9.30309 15.5188 9.33276C15.5941 9.3663 15.6811 9.37549 15.8553 9.39386L20.5473 9.88908C21.1364 9.95125 21.4308 9.98233 21.562 10.1163C21.6758 10.2326 21.7288 10.3955 21.705 10.5566C21.6777 10.742 21.4577 10.9403 21.0177 11.3368L17.5128 14.4954C17.3828 14.6126 17.3177 14.6712 17.2766 14.7426C17.2401 14.8058 17.2173 14.8759 17.2097 14.9484C17.201 15.0304 17.2192 15.116 17.2555 15.2874L18.2345 19.9027C18.3574 20.4821 18.4189 20.7718 18.332 20.9379C18.2565 21.0822 18.1179 21.1829 17.9574 21.2101C17.7726 21.2413 17.516 21.0934 17.0029 20.7975L12.9159 18.4402C12.7643 18.3527 12.6884 18.309 12.6078 18.2918C12.5365 18.2767 12.4627 18.2767 12.3914 18.2918C12.3107 18.309 12.2349 18.3527 12.0832 18.4402L7.99628 20.7975C7.48317 21.0934 7.22662 21.2413 7.04182 21.2101C6.88129 21.1829 6.7427 21.0822 6.66724 20.9379C6.58038 20.7718 6.64183 20.4821 6.76473 19.9027L7.74365 15.2874C7.77998 15.116 7.79815 15.0304 7.78953 14.9484C7.78189 14.8759 7.75911 14.8058 7.72265 14.7426C7.68145 14.6712 7.61641 14.6126 7.48634 14.4954L3.98153 11.3368C3.54152 10.9403 3.32151 10.742 3.29415 10.5566C3.2704 10.3955 3.32333 10.2326 3.43722 10.1163C3.56835 9.98233 3.86288 9.95125 4.45194 9.88908L9.14391 9.39386C9.31806 9.37549 9.40512 9.3663 9.48041 9.33276C9.54703 9.30309 9.60667 9.25975 9.65548 9.20556C9.71064 9.14432 9.74629 9.06435 9.81759 8.90441L11.7384 4.59511Z" stroke="white" stroke-width="2" stroke-linecap="round" stroke-linejoin="round"/>
</svg>
