<svg width="16" height="16" viewBox="0 0 16 16" fill="none" xmlns="http://www.w3.org/2000/svg">
<path fill-rule="evenodd" clip-rule="evenodd" d="M13.1737 8.00066C13.1737 8.54299 13.619 8.98426 14.1663 8.98426C14.4423 8.98426 14.6663 9.20621 14.6663 9.47969V11.2639C14.6663 12.7727 13.4277 14 11.905 14H4.09501C2.57234 14 1.33301 12.7727 1.33301 11.2639V9.47969C1.33301 9.20621 1.55701 8.98426 1.83301 8.98426C2.38101 8.98426 2.82634 8.54299 2.82634 8.00066C2.82634 7.4722 2.39901 7.07453 1.83301 7.07453C1.70034 7.07453 1.57367 7.02235 1.47967 6.92921C1.38567 6.83607 1.33301 6.7099 1.33301 6.5791L1.33434 4.73676C1.33434 3.22801 2.57301 2 4.09567 2H11.9037C13.4263 2 14.6657 3.22801 14.6657 4.73676L14.6663 6.52163C14.6663 6.65243 14.6137 6.77926 14.5203 6.87174C14.4263 6.96488 14.2997 7.01707 14.1663 7.01707C13.619 7.01707 13.1737 7.45833 13.1737 8.00066ZM9.50101 8.43202L10.287 7.67368C10.4237 7.54288 10.471 7.34999 10.4117 7.17164C10.353 6.99328 10.1997 6.86645 10.0143 6.84069L8.92834 6.68347L8.44234 5.70847C8.35901 5.54068 8.18967 5.43631 8.00101 5.43565H7.99967C7.81167 5.43565 7.64234 5.54002 7.55767 5.70781L7.07167 6.68347L5.98767 6.84003C5.80034 6.86645 5.64701 6.99328 5.58767 7.17164C5.52901 7.34999 5.57634 7.54288 5.71234 7.67368L6.49834 8.43202L6.31301 9.50413C6.28101 9.68909 6.35634 9.87273 6.50967 9.98305C6.59634 10.0445 6.69701 10.0762 6.79901 10.0762C6.87701 10.0762 6.95567 10.057 7.02767 10.0194L7.99967 9.51338L8.96967 10.0181C9.13767 10.1072 9.33701 10.0934 9.48967 9.98238C9.64367 9.87273 9.71901 9.68909 9.68701 9.50413L9.50101 8.43202Z" fill="#949494"/>
</svg>
