<svg width="23" height="19" viewBox="0 0 23 19" fill="none" xmlns="http://www.w3.org/2000/svg">
<path d="M16.5 17.3711H21.5V15.3711C21.5 14.7476 21.3057 14.1397 20.9441 13.6317C20.5826 13.1238 20.0718 12.7411 19.4827 12.5368C18.8937 12.3326 18.2556 12.317 17.6573 12.4921C17.0589 12.6673 16.53 13.0245 16.144 13.5141M16.5 17.3711H6.5M16.5 17.3711V15.3711C16.5 14.7151 16.374 14.0881 16.144 13.5141M16.144 13.5141C15.7726 12.5861 15.1318 11.7906 14.304 11.2302C13.4762 10.6699 12.4996 10.3704 11.5 10.3704C10.5004 10.3704 9.52376 10.6699 8.696 11.2302C7.86825 11.7906 7.22736 12.5861 6.856 13.5141M6.5 17.3711H1.5V15.3711C1.50005 14.7476 1.69434 14.1397 2.05586 13.6317C2.41739 13.1238 2.92819 12.7411 3.51725 12.5368C4.10632 12.3326 4.74438 12.317 5.34274 12.4921C5.9411 12.6673 6.47003 13.0245 6.856 13.5141M6.5 17.3711V15.3711C6.5 14.7151 6.626 14.0881 6.856 13.5141M14.5 4.37109C14.5 5.16674 14.1839 5.92981 13.6213 6.49241C13.0587 7.05502 12.2956 7.37109 11.5 7.37109C10.7044 7.37109 9.94129 7.05502 9.37868 6.49241C8.81607 5.92981 8.5 5.16674 8.5 4.37109C8.5 3.57544 8.81607 2.81238 9.37868 2.24977C9.94129 1.68716 10.7044 1.37109 11.5 1.37109C12.2956 1.37109 13.0587 1.68716 13.6213 2.24977C14.1839 2.81238 14.5 3.57544 14.5 4.37109ZM20.5 7.37109C20.5 7.90153 20.2893 8.41023 19.9142 8.78531C19.5391 9.16038 19.0304 9.37109 18.5 9.37109C17.9696 9.37109 17.4609 9.16038 17.0858 8.78531C16.7107 8.41023 16.5 7.90153 16.5 7.37109C16.5 6.84066 16.7107 6.33195 17.0858 5.95688C17.4609 5.58181 17.9696 5.37109 18.5 5.37109C19.0304 5.37109 19.5391 5.58181 19.9142 5.95688C20.2893 6.33195 20.5 6.84066 20.5 7.37109ZM6.5 7.37109C6.5 7.90153 6.28929 8.41023 5.91421 8.78531C5.53914 9.16038 5.03043 9.37109 4.5 9.37109C3.96957 9.37109 3.46086 9.16038 3.08579 8.78531C2.71071 8.41023 2.5 7.90153 2.5 7.37109C2.5 6.84066 2.71071 6.33195 3.08579 5.95688C3.46086 5.58181 3.96957 5.37109 4.5 5.37109C5.03043 5.37109 5.53914 5.58181 5.91421 5.95688C6.28929 6.33195 6.5 6.84066 6.5 7.37109Z" stroke="#797979" stroke-width="1.6" stroke-linecap="round" stroke-linejoin="round"/>
</svg>
