<svg width="32" height="33" viewBox="0 0 32 33" fill="none" xmlns="http://www.w3.org/2000/svg">
<path fill-rule="evenodd" clip-rule="evenodd" d="M22.5859 4.66699C24.3739 4.66699 26.0939 5.37366 27.3592 6.64166C28.6259 7.90699 29.3339 9.61366 29.3339 11.4003V21.9337C29.3339 25.6537 26.3072 28.667 22.5859 28.667H9.4139C5.69257 28.667 2.66724 25.6537 2.66724 21.9337V11.4003C2.66724 7.68033 5.67924 4.66699 9.4139 4.66699H22.5859ZM24.7072 13.387L24.8139 13.2803C25.1326 12.8937 25.1326 12.3337 24.7992 11.947C24.6139 11.7483 24.3592 11.627 24.0939 11.6003C23.8139 11.5857 23.5472 11.6803 23.3459 11.867L17.3339 16.667C16.5606 17.3083 15.4526 17.3083 14.6672 16.667L8.66724 11.867C8.25257 11.5603 7.67924 11.6003 7.3339 11.9603C6.9739 12.3203 6.9339 12.8937 7.23924 13.2937L7.4139 13.467L13.4806 18.2003C14.2272 18.787 15.1326 19.107 16.0806 19.107C17.0259 19.107 17.9472 18.787 18.6926 18.2003L24.7072 13.387Z" fill="url(#paint0_linear_631_5024)"/>
<defs>
<linearGradient id="paint0_linear_631_5024" x1="29.3339" y1="28.667" x2="-1.83016" y2="18.6273" gradientUnits="userSpaceOnUse">
<stop stop-color="#2976BA"/>
<stop offset="1" stop-color="#43B9E7"/>
</linearGradient>
</defs>
</svg>
