<svg width="20" height="20" viewBox="0 0 20 20" fill="none" xmlns="http://www.w3.org/2000/svg">
<path fill-rule="evenodd" clip-rule="evenodd" d="M1.66658 10.0001C1.66658 5.40008 5.39158 1.66675 9.99992 1.66675C14.5999 1.66675 18.3333 5.40008 18.3333 10.0001C18.3333 14.6084 14.5999 18.3334 9.99992 18.3334C5.39158 18.3334 1.66658 14.6084 1.66658 10.0001ZM11.8583 11.5251L13.2083 7.25841C13.2999 6.96675 13.0333 6.69175 12.7416 6.78341L8.47492 8.11675C8.29992 8.17508 8.15825 8.30841 8.10825 8.48341L6.77492 12.7584C6.68325 13.0417 6.95825 13.3167 7.24158 13.2251L11.4916 11.8917C11.6666 11.8417 11.8083 11.7001 11.8583 11.5251Z" fill="#949494"/>
</svg>
